<svg width="702" height="404" viewBox="0 0 702 404" fill="none" xmlns="http://www.w3.org/2000/svg">
<rect width="702" height="404" rx="10" fill="#FBFBFB"/>
<path d="M0 10C0 4.47715 4.47715 0 10 0H692C697.523 0 702 4.47715 702 10V33H0V10Z" fill="#C2C2C2"/>
<circle cx="683.5" cy="16.5" r="6.5" fill="#C10E0E"/>
<circle cx="658.5" cy="16.5" r="6.5" fill="#D1992B"/>
<circle cx="633.5" cy="16.5" r="6.5" fill="#3CC10E"/>
<path d="M16.895 48V46.785H19.595V40.125H17.465V39.195C17.855 39.135 18.195 39.07 18.485 39C18.785 38.93 19.055 38.85 19.295 38.76C19.545 38.67 19.775 38.565 19.985 38.445H21.08V46.785H23.495V48H16.895ZM16.535 67V66.13C17.575 65.23 18.46 64.43 19.19 63.73C19.92 63.03 20.475 62.4 20.855 61.84C21.245 61.27 21.44 60.725 21.44 60.205C21.44 59.685 21.275 59.265 20.945 58.945C20.625 58.615 20.14 58.45 19.49 58.45C19.06 58.45 18.66 58.56 18.29 58.78C17.93 58.99 17.6 59.25 17.3 59.56L16.46 58.735C16.91 58.275 17.385 57.915 17.885 57.655C18.395 57.395 18.995 57.265 19.685 57.265C20.325 57.265 20.885 57.385 21.365 57.625C21.845 57.855 22.215 58.19 22.475 58.63C22.735 59.06 22.865 59.56 22.865 60.13C22.865 60.72 22.685 61.315 22.325 61.915C21.965 62.505 21.47 63.125 20.84 63.775C20.21 64.415 19.495 65.1 18.695 65.83C18.985 65.8 19.28 65.78 19.58 65.77C19.89 65.75 20.18 65.74 20.45 65.74H23.375V67H16.535ZM19.775 86.18C19.225 86.18 18.73 86.12 18.29 86C17.86 85.87 17.48 85.705 17.15 85.505C16.82 85.295 16.535 85.07 16.295 84.83L17.03 83.87C17.35 84.16 17.725 84.415 18.155 84.635C18.595 84.855 19.1 84.965 19.67 84.965C20.08 84.965 20.445 84.9 20.765 84.77C21.095 84.64 21.355 84.455 21.545 84.215C21.735 83.975 21.83 83.69 21.83 83.36C21.83 83.01 21.72 82.705 21.5 82.445C21.29 82.175 20.94 81.97 20.45 81.83C19.97 81.68 19.32 81.605 18.5 81.605V80.495C19.23 80.495 19.81 80.425 20.24 80.285C20.68 80.135 21 79.94 21.2 79.7C21.4 79.45 21.5 79.165 21.5 78.845C21.5 78.415 21.33 78.075 20.99 77.825C20.66 77.575 20.22 77.45 19.67 77.45C19.25 77.45 18.845 77.54 18.455 77.72C18.075 77.89 17.73 78.115 17.42 78.395L16.64 77.465C17.05 77.105 17.515 76.815 18.035 76.595C18.555 76.375 19.12 76.265 19.73 76.265C20.36 76.265 20.92 76.365 21.41 76.565C21.9 76.755 22.285 77.035 22.565 77.405C22.855 77.765 23 78.21 23 78.74C23 79.29 22.815 79.75 22.445 80.12C22.075 80.49 21.595 80.775 21.005 80.975V81.035C21.425 81.125 21.81 81.28 22.16 81.5C22.52 81.71 22.805 81.98 23.015 82.31C23.225 82.63 23.33 83.005 23.33 83.435C23.33 84.015 23.165 84.51 22.835 84.92C22.515 85.32 22.085 85.63 21.545 85.85C21.015 86.07 20.425 86.18 19.775 86.18ZM20.915 105V98.67C20.925 98.39 20.935 98.09 20.945 97.77C20.965 97.44 20.98 97.14 20.99 96.87H20.915C20.765 97.11 20.6 97.355 20.42 97.605C20.25 97.845 20.085 98.085 19.925 98.325L17.63 101.28H23.735V102.45H16.07V101.445L20.645 95.43H22.31V105H20.915ZM19.775 124.18C19.215 124.18 18.72 124.12 18.29 124C17.86 123.87 17.48 123.705 17.15 123.505C16.83 123.305 16.545 123.09 16.295 122.86L17.015 121.9C17.225 122.09 17.455 122.265 17.705 122.425C17.955 122.585 18.235 122.715 18.545 122.815C18.855 122.915 19.205 122.965 19.595 122.965C20.025 122.965 20.41 122.885 20.75 122.725C21.1 122.555 21.375 122.325 21.575 122.035C21.775 121.735 21.875 121.375 21.875 120.955C21.875 120.345 21.675 119.87 21.275 119.53C20.875 119.19 20.34 119.02 19.67 119.02C19.3 119.02 18.98 119.065 18.71 119.155C18.45 119.245 18.155 119.385 17.825 119.575L17.075 119.095L17.375 114.445H22.91V115.705H18.68L18.455 118.27C18.715 118.16 18.97 118.075 19.22 118.015C19.47 117.955 19.76 117.925 20.09 117.925C20.69 117.925 21.24 118.035 21.74 118.255C22.24 118.465 22.635 118.79 22.925 119.23C23.225 119.67 23.375 120.23 23.375 120.91C23.375 121.61 23.205 122.205 22.865 122.695C22.525 123.175 22.08 123.545 21.53 123.805C20.98 124.055 20.395 124.18 19.775 124.18ZM20.3 143.18C19.79 143.18 19.31 143.085 18.86 142.895C18.41 142.705 18.015 142.42 17.675 142.04C17.335 141.66 17.07 141.18 16.88 140.6C16.69 140.02 16.595 139.335 16.595 138.545C16.595 137.605 16.705 136.8 16.925 136.13C17.145 135.46 17.44 134.915 17.81 134.495C18.19 134.075 18.62 133.765 19.1 133.565C19.59 133.365 20.095 133.265 20.615 133.265C21.225 133.265 21.76 133.365 22.22 133.565C22.68 133.765 23.07 134.015 23.39 134.315L22.58 135.23C22.34 135 22.06 134.82 21.74 134.69C21.42 134.55 21.08 134.48 20.72 134.48C20.24 134.48 19.79 134.61 19.37 134.87C18.95 135.13 18.61 135.555 18.35 136.145C18.1 136.735 17.975 137.535 17.975 138.545C17.975 139.335 18.065 139.99 18.245 140.51C18.435 141.02 18.705 141.4 19.055 141.65C19.405 141.9 19.815 142.025 20.285 142.025C20.635 142.025 20.95 141.95 21.23 141.8C21.52 141.64 21.745 141.415 21.905 141.125C22.075 140.825 22.16 140.475 22.16 140.075C22.16 139.465 21.995 139.005 21.665 138.695C21.345 138.375 20.885 138.215 20.285 138.215C19.935 138.215 19.555 138.31 19.145 138.5C18.745 138.69 18.35 139.02 17.96 139.49L17.9 138.395C18.28 137.995 18.705 137.685 19.175 137.465C19.645 137.235 20.115 137.12 20.585 137.12C21.165 137.12 21.675 137.23 22.115 137.45C22.565 137.67 22.915 138 23.165 138.44C23.425 138.87 23.555 139.415 23.555 140.075C23.555 140.705 23.405 141.25 23.105 141.71C22.805 142.17 22.405 142.53 21.905 142.79C21.415 143.05 20.88 143.18 20.3 143.18ZM18.755 162C18.795 161.12 18.88 160.315 19.01 159.585C19.14 158.855 19.325 158.17 19.565 157.53C19.805 156.88 20.11 156.245 20.48 155.625C20.86 155.005 21.315 154.365 21.845 153.705H16.52V152.445H23.51V153.36C22.88 154.06 22.365 154.735 21.965 155.385C21.565 156.025 21.25 156.675 21.02 157.335C20.79 157.995 20.62 158.705 20.51 159.465C20.4 160.215 20.325 161.06 20.285 162H18.755ZM20.03 181.18C19.3 181.18 18.67 181.07 18.14 180.85C17.61 180.62 17.2 180.31 16.91 179.92C16.63 179.52 16.49 179.065 16.49 178.555C16.49 178.125 16.585 177.755 16.775 177.445C16.965 177.135 17.21 176.87 17.51 176.65C17.82 176.42 18.145 176.225 18.485 176.065V176.005C18.085 175.745 17.745 175.435 17.465 175.075C17.185 174.705 17.045 174.27 17.045 173.77C17.045 173.26 17.175 172.82 17.435 172.45C17.695 172.07 18.05 171.78 18.5 171.58C18.96 171.37 19.485 171.265 20.075 171.265C21.005 171.265 21.74 171.505 22.28 171.985C22.82 172.455 23.09 173.07 23.09 173.83C23.09 174.27 22.945 174.685 22.655 175.075C22.375 175.465 22.04 175.795 21.65 176.065V176.125C22 176.295 22.315 176.49 22.595 176.71C22.875 176.92 23.095 177.18 23.255 177.49C23.425 177.79 23.51 178.16 23.51 178.6C23.51 179.09 23.37 179.53 23.09 179.92C22.82 180.3 22.425 180.605 21.905 180.835C21.395 181.065 20.77 181.18 20.03 181.18ZM20.75 175.705C21.46 175.155 21.815 174.56 21.815 173.92C21.815 173.62 21.745 173.35 21.605 173.11C21.475 172.87 21.275 172.685 21.005 172.555C20.745 172.415 20.425 172.345 20.045 172.345C19.565 172.345 19.165 172.475 18.845 172.735C18.535 172.985 18.38 173.33 18.38 173.77C18.38 174.11 18.48 174.4 18.68 174.64C18.89 174.87 19.175 175.07 19.535 175.24C19.895 175.4 20.3 175.555 20.75 175.705ZM20.06 180.1C20.7 180.1 21.2 179.96 21.56 179.68C21.92 179.4 22.1 179.025 22.1 178.555C22.1 178.255 22.025 178 21.875 177.79C21.735 177.58 21.535 177.405 21.275 177.265C21.025 177.115 20.725 176.98 20.375 176.86C20.035 176.74 19.67 176.61 19.28 176.47C19 176.63 18.75 176.805 18.53 176.995C18.31 177.175 18.135 177.385 18.005 177.625C17.885 177.855 17.825 178.115 17.825 178.405C17.825 178.735 17.915 179.03 18.095 179.29C18.275 179.54 18.535 179.74 18.875 179.89C19.215 180.03 19.61 180.1 20.06 180.1ZM19.385 200.18C18.775 200.18 18.24 200.08 17.78 199.88C17.32 199.67 16.935 199.42 16.625 199.13L17.435 198.215C17.665 198.435 17.94 198.615 18.26 198.755C18.59 198.895 18.93 198.965 19.28 198.965C19.77 198.965 20.22 198.835 20.63 198.575C21.05 198.315 21.385 197.89 21.635 197.3C21.895 196.71 22.025 195.91 22.025 194.9C22.025 194.11 21.93 193.46 21.74 192.95C21.56 192.43 21.295 192.045 20.945 191.795C20.605 191.545 20.195 191.42 19.715 191.42C19.365 191.42 19.045 191.5 18.755 191.66C18.475 191.81 18.25 192.03 18.08 192.32C17.92 192.61 17.84 192.96 17.84 193.37C17.84 193.98 18 194.445 18.32 194.765C18.65 195.075 19.115 195.23 19.715 195.23C20.075 195.23 20.455 195.135 20.855 194.945C21.265 194.745 21.66 194.415 22.04 193.955L22.1 195.05C21.72 195.44 21.295 195.75 20.825 195.98C20.355 196.21 19.885 196.325 19.415 196.325C18.835 196.325 18.32 196.215 17.87 195.995C17.43 195.775 17.08 195.45 16.82 195.02C16.57 194.58 16.445 194.03 16.445 193.37C16.445 192.74 16.595 192.195 16.895 191.735C17.195 191.265 17.595 190.905 18.095 190.655C18.595 190.395 19.13 190.265 19.7 190.265C20.22 190.265 20.7 190.36 21.14 190.55C21.59 190.73 21.985 191.015 22.325 191.405C22.665 191.785 22.93 192.265 23.12 192.845C23.32 193.425 23.42 194.11 23.42 194.9C23.42 195.84 23.305 196.645 23.075 197.315C22.855 197.985 22.555 198.53 22.175 198.95C21.805 199.37 21.375 199.68 20.885 199.88C20.405 200.08 19.905 200.18 19.385 200.18ZM7.90086 219V217.785H10.6009V211.125H8.47086V210.195C8.86086 210.135 9.20086 210.07 9.49086 210C9.79086 209.93 10.0609 209.85 10.3009 209.76C10.5509 209.67 10.7809 209.565 10.9909 209.445H12.0859V217.785H14.5009V219H7.90086ZM20 219.18C19.29 219.18 18.67 218.985 18.14 218.595C17.62 218.205 17.215 217.64 16.925 216.9C16.645 216.15 16.505 215.245 16.505 214.185C16.505 212.575 16.82 211.355 17.45 210.525C18.08 209.685 18.93 209.265 20 209.265C21.08 209.265 21.93 209.685 22.55 210.525C23.18 211.355 23.495 212.575 23.495 214.185C23.495 215.245 23.35 216.15 23.06 216.9C22.78 217.64 22.38 218.205 21.86 218.595C21.34 218.985 20.72 219.18 20 219.18ZM20 217.995C20.41 217.995 20.775 217.865 21.095 217.605C21.415 217.345 21.665 216.935 21.845 216.375C22.035 215.805 22.13 215.075 22.13 214.185C22.13 213.295 22.035 212.575 21.845 212.025C21.665 211.465 21.415 211.06 21.095 210.81C20.775 210.56 20.41 210.435 20 210.435C19.59 210.435 19.225 210.56 18.905 210.81C18.585 211.06 18.33 211.465 18.14 212.025C17.96 212.575 17.87 213.295 17.87 214.185C17.87 215.075 17.96 215.805 18.14 216.375C18.33 216.935 18.585 217.345 18.905 217.605C19.225 217.865 19.59 217.995 20 217.995ZM20 215.145C19.74 215.145 19.51 215.055 19.31 214.875C19.11 214.685 19.01 214.43 19.01 214.11C19.01 213.78 19.11 213.525 19.31 213.345C19.51 213.165 19.74 213.075 20 213.075C20.27 213.075 20.5 213.165 20.69 213.345C20.89 213.525 20.99 213.78 20.99 214.11C20.99 214.43 20.89 214.685 20.69 214.875C20.5 215.055 20.27 215.145 20 215.145ZM7.90086 238V236.785H10.6009V230.125H8.47086V229.195C8.86086 229.135 9.20086 229.07 9.49086 229C9.79086 228.93 10.0609 228.85 10.3009 228.76C10.5509 228.67 10.7809 228.565 10.9909 228.445H12.0859V236.785H14.5009V238H7.90086ZM16.895 238V236.785H19.595V230.125H17.465V229.195C17.855 229.135 18.195 229.07 18.485 229C18.785 228.93 19.055 228.85 19.295 228.76C19.545 228.67 19.775 228.565 19.985 228.445H21.08V236.785H23.495V238H16.895ZM7.90086 257V255.785H10.6009V249.125H8.47086V248.195C8.86086 248.135 9.20086 248.07 9.49086 248C9.79086 247.93 10.0609 247.85 10.3009 247.76C10.5509 247.67 10.7809 247.565 10.9909 247.445H12.0859V255.785H14.5009V257H7.90086ZM16.535 257V256.13C17.575 255.23 18.46 254.43 19.19 253.73C19.92 253.03 20.475 252.4 20.855 251.84C21.245 251.27 21.44 250.725 21.44 250.205C21.44 249.685 21.275 249.265 20.945 248.945C20.625 248.615 20.14 248.45 19.49 248.45C19.06 248.45 18.66 248.56 18.29 248.78C17.93 248.99 17.6 249.25 17.3 249.56L16.46 248.735C16.91 248.275 17.385 247.915 17.885 247.655C18.395 247.395 18.995 247.265 19.685 247.265C20.325 247.265 20.885 247.385 21.365 247.625C21.845 247.855 22.215 248.19 22.475 248.63C22.735 249.06 22.865 249.56 22.865 250.13C22.865 250.72 22.685 251.315 22.325 251.915C21.965 252.505 21.47 253.125 20.84 253.775C20.21 254.415 19.495 255.1 18.695 255.83C18.985 255.8 19.28 255.78 19.58 255.77C19.89 255.75 20.18 255.74 20.45 255.74H23.375V257H16.535ZM7.90086 276V274.785H10.6009V268.125H8.47086V267.195C8.86086 267.135 9.20086 267.07 9.49086 267C9.79086 266.93 10.0609 266.85 10.3009 266.76C10.5509 266.67 10.7809 266.565 10.9909 266.445H12.0859V274.785H14.5009V276H7.90086ZM19.775 276.18C19.225 276.18 18.73 276.12 18.29 276C17.86 275.87 17.48 275.705 17.15 275.505C16.82 275.295 16.535 275.07 16.295 274.83L17.03 273.87C17.35 274.16 17.725 274.415 18.155 274.635C18.595 274.855 19.1 274.965 19.67 274.965C20.08 274.965 20.445 274.9 20.765 274.77C21.095 274.64 21.355 274.455 21.545 274.215C21.735 273.975 21.83 273.69 21.83 273.36C21.83 273.01 21.72 272.705 21.5 272.445C21.29 272.175 20.94 271.97 20.45 271.83C19.97 271.68 19.32 271.605 18.5 271.605V270.495C19.23 270.495 19.81 270.425 20.24 270.285C20.68 270.135 21 269.94 21.2 269.7C21.4 269.45 21.5 269.165 21.5 268.845C21.5 268.415 21.33 268.075 20.99 267.825C20.66 267.575 20.22 267.45 19.67 267.45C19.25 267.45 18.845 267.54 18.455 267.72C18.075 267.89 17.73 268.115 17.42 268.395L16.64 267.465C17.05 267.105 17.515 266.815 18.035 266.595C18.555 266.375 19.12 266.265 19.73 266.265C20.36 266.265 20.92 266.365 21.41 266.565C21.9 266.755 22.285 267.035 22.565 267.405C22.855 267.765 23 268.21 23 268.74C23 269.29 22.815 269.75 22.445 270.12C22.075 270.49 21.595 270.775 21.005 270.975V271.035C21.425 271.125 21.81 271.28 22.16 271.5C22.52 271.71 22.805 271.98 23.015 272.31C23.225 272.63 23.33 273.005 23.33 273.435C23.33 274.015 23.165 274.51 22.835 274.92C22.515 275.32 22.085 275.63 21.545 275.85C21.015 276.07 20.425 276.18 19.775 276.18ZM7.90086 295V293.785H10.6009V287.125H8.47086V286.195C8.86086 286.135 9.20086 286.07 9.49086 286C9.79086 285.93 10.0609 285.85 10.3009 285.76C10.5509 285.67 10.7809 285.565 10.9909 285.445H12.0859V293.785H14.5009V295H7.90086ZM20.915 295V288.67C20.925 288.39 20.935 288.09 20.945 287.77C20.965 287.44 20.98 287.14 20.99 286.87H20.915C20.765 287.11 20.6 287.355 20.42 287.605C20.25 287.845 20.085 288.085 19.925 288.325L17.63 291.28H23.735V292.45H16.07V291.445L20.645 285.43H22.31V295H20.915ZM7.90086 314V312.785H10.6009V306.125H8.47086V305.195C8.86086 305.135 9.20086 305.07 9.49086 305C9.79086 304.93 10.0609 304.85 10.3009 304.76C10.5509 304.67 10.7809 304.565 10.9909 304.445H12.0859V312.785H14.5009V314H7.90086ZM19.775 314.18C19.215 314.18 18.72 314.12 18.29 314C17.86 313.87 17.48 313.705 17.15 313.505C16.83 313.305 16.545 313.09 16.295 312.86L17.015 311.9C17.225 312.09 17.455 312.265 17.705 312.425C17.955 312.585 18.235 312.715 18.545 312.815C18.855 312.915 19.205 312.965 19.595 312.965C20.025 312.965 20.41 312.885 20.75 312.725C21.1 312.555 21.375 312.325 21.575 312.035C21.775 311.735 21.875 311.375 21.875 310.955C21.875 310.345 21.675 309.87 21.275 309.53C20.875 309.19 20.34 309.02 19.67 309.02C19.3 309.02 18.98 309.065 18.71 309.155C18.45 309.245 18.155 309.385 17.825 309.575L17.075 309.095L17.375 304.445H22.91V305.705H18.68L18.455 308.27C18.715 308.16 18.97 308.075 19.22 308.015C19.47 307.955 19.76 307.925 20.09 307.925C20.69 307.925 21.24 308.035 21.74 308.255C22.24 308.465 22.635 308.79 22.925 309.23C23.225 309.67 23.375 310.23 23.375 310.91C23.375 311.61 23.205 312.205 22.865 312.695C22.525 313.175 22.08 313.545 21.53 313.805C20.98 314.055 20.395 314.18 19.775 314.18ZM7.90086 333V331.785H10.6009V325.125H8.47086V324.195C8.86086 324.135 9.20086 324.07 9.49086 324C9.79086 323.93 10.0609 323.85 10.3009 323.76C10.5509 323.67 10.7809 323.565 10.9909 323.445H12.0859V331.785H14.5009V333H7.90086ZM20.3 333.18C19.79 333.18 19.31 333.085 18.86 332.895C18.41 332.705 18.015 332.42 17.675 332.04C17.335 331.66 17.07 331.18 16.88 330.6C16.69 330.02 16.595 329.335 16.595 328.545C16.595 327.605 16.705 326.8 16.925 326.13C17.145 325.46 17.44 324.915 17.81 324.495C18.19 324.075 18.62 323.765 19.1 323.565C19.59 323.365 20.095 323.265 20.615 323.265C21.225 323.265 21.76 323.365 22.22 323.565C22.68 323.765 23.07 324.015 23.39 324.315L22.58 325.23C22.34 325 22.06 324.82 21.74 324.69C21.42 324.55 21.08 324.48 20.72 324.48C20.24 324.48 19.79 324.61 19.37 324.87C18.95 325.13 18.61 325.555 18.35 326.145C18.1 326.735 17.975 327.535 17.975 328.545C17.975 329.335 18.065 329.99 18.245 330.51C18.435 331.02 18.705 331.4 19.055 331.65C19.405 331.9 19.815 332.025 20.285 332.025C20.635 332.025 20.95 331.95 21.23 331.8C21.52 331.64 21.745 331.415 21.905 331.125C22.075 330.825 22.16 330.475 22.16 330.075C22.16 329.465 21.995 329.005 21.665 328.695C21.345 328.375 20.885 328.215 20.285 328.215C19.935 328.215 19.555 328.31 19.145 328.5C18.745 328.69 18.35 329.02 17.96 329.49L17.9 328.395C18.28 327.995 18.705 327.685 19.175 327.465C19.645 327.235 20.115 327.12 20.585 327.12C21.165 327.12 21.675 327.23 22.115 327.45C22.565 327.67 22.915 328 23.165 328.44C23.425 328.87 23.555 329.415 23.555 330.075C23.555 330.705 23.405 331.25 23.105 331.71C22.805 332.17 22.405 332.53 21.905 332.79C21.415 333.05 20.88 333.18 20.3 333.18ZM7.90086 352V350.785H10.6009V344.125H8.47086V343.195C8.86086 343.135 9.20086 343.07 9.49086 343C9.79086 342.93 10.0609 342.85 10.3009 342.76C10.5509 342.67 10.7809 342.565 10.9909 342.445H12.0859V350.785H14.5009V352H7.90086ZM18.755 352C18.795 351.12 18.88 350.315 19.01 349.585C19.14 348.855 19.325 348.17 19.565 347.53C19.805 346.88 20.11 346.245 20.48 345.625C20.86 345.005 21.315 344.365 21.845 343.705H16.52V342.445H23.51V343.36C22.88 344.06 22.365 344.735 21.965 345.385C21.565 346.025 21.25 346.675 21.02 347.335C20.79 347.995 20.62 348.705 20.51 349.465C20.4 350.215 20.325 351.06 20.285 352H18.755ZM7.90086 371V369.785H10.6009V363.125H8.47086V362.195C8.86086 362.135 9.20086 362.07 9.49086 362C9.79086 361.93 10.0609 361.85 10.3009 361.76C10.5509 361.67 10.7809 361.565 10.9909 361.445H12.0859V369.785H14.5009V371H7.90086ZM20.03 371.18C19.3 371.18 18.67 371.07 18.14 370.85C17.61 370.62 17.2 370.31 16.91 369.92C16.63 369.52 16.49 369.065 16.49 368.555C16.49 368.125 16.585 367.755 16.775 367.445C16.965 367.135 17.21 366.87 17.51 366.65C17.82 366.42 18.145 366.225 18.485 366.065V366.005C18.085 365.745 17.745 365.435 17.465 365.075C17.185 364.705 17.045 364.27 17.045 363.77C17.045 363.26 17.175 362.82 17.435 362.45C17.695 362.07 18.05 361.78 18.5 361.58C18.96 361.37 19.485 361.265 20.075 361.265C21.005 361.265 21.74 361.505 22.28 361.985C22.82 362.455 23.09 363.07 23.09 363.83C23.09 364.27 22.945 364.685 22.655 365.075C22.375 365.465 22.04 365.795 21.65 366.065V366.125C22 366.295 22.315 366.49 22.595 366.71C22.875 366.92 23.095 367.18 23.255 367.49C23.425 367.79 23.51 368.16 23.51 368.6C23.51 369.09 23.37 369.53 23.09 369.92C22.82 370.3 22.425 370.605 21.905 370.835C21.395 371.065 20.77 371.18 20.03 371.18ZM20.75 365.705C21.46 365.155 21.815 364.56 21.815 363.92C21.815 363.62 21.745 363.35 21.605 363.11C21.475 362.87 21.275 362.685 21.005 362.555C20.745 362.415 20.425 362.345 20.045 362.345C19.565 362.345 19.165 362.475 18.845 362.735C18.535 362.985 18.38 363.33 18.38 363.77C18.38 364.11 18.48 364.4 18.68 364.64C18.89 364.87 19.175 365.07 19.535 365.24C19.895 365.4 20.3 365.555 20.75 365.705ZM20.06 370.1C20.7 370.1 21.2 369.96 21.56 369.68C21.92 369.4 22.1 369.025 22.1 368.555C22.1 368.255 22.025 368 21.875 367.79C21.735 367.58 21.535 367.405 21.275 367.265C21.025 367.115 20.725 366.98 20.375 366.86C20.035 366.74 19.67 366.61 19.28 366.47C19 366.63 18.75 366.805 18.53 366.995C18.31 367.175 18.135 367.385 18.005 367.625C17.885 367.855 17.825 368.115 17.825 368.405C17.825 368.735 17.915 369.03 18.095 369.29C18.275 369.54 18.535 369.74 18.875 369.89C19.215 370.03 19.61 370.1 20.06 370.1Z" fill="#818181"/>
<line x1="28.5" y1="404.003" x2="28.5" y2="32.9973" stroke="#EAEAEA"/>
<path d="M40.44 48.34L34.785 44.56V43.48L40.44 39.7V41.095L36.06 43.99V44.05L40.44 46.945V48.34ZM45.9991 45.43L45.8041 40.51L45.7591 38.95H47.2291L47.1841 40.51L46.9891 45.43H45.9991ZM46.4941 49.18C46.1641 49.18 45.8791 49.065 45.6391 48.835C45.4091 48.605 45.2941 48.3 45.2941 47.92C45.2941 47.54 45.4091 47.24 45.6391 47.02C45.8791 46.79 46.1641 46.675 46.4941 46.675C46.8341 46.675 47.1191 46.79 47.3491 47.02C47.5791 47.24 47.6941 47.54 47.6941 47.92C47.6941 48.3 47.5791 48.605 47.3491 48.835C47.1191 49.065 46.8341 49.18 46.4941 49.18ZM160.478 48.34V46.945L164.858 44.05V43.99L160.478 41.095V39.7L166.133 43.48V44.56L160.478 48.34ZM40.44 67.34L34.785 63.56V62.48L40.44 58.7V60.095L36.06 62.99V63.05L40.44 65.945V67.34ZM124.156 61.94V60.86H130.726V61.94H124.156ZM124.156 65.24V64.16H130.726V65.24H124.156ZM169.472 67.34V65.945L173.852 63.05V62.99L169.472 60.095V58.7L175.127 62.48V63.56L169.472 67.34ZM76.4166 86.34L70.7616 82.56V81.48L76.4166 77.7V79.095L72.0366 81.99V82.05L76.4166 84.945V86.34ZM115.507 86.34V84.945L119.887 82.05V81.99L115.507 79.095V77.7L121.162 81.48V82.56L115.507 86.34ZM112.393 105.34L106.738 101.56V100.48L112.393 96.7V98.095L108.013 100.99V101.05L112.393 103.945V105.34ZM160.478 105.34V103.945L164.858 101.05V100.99L160.478 98.095V96.7L166.133 100.48V101.56L160.478 105.34ZM169.157 106V96.175H171.647C172.627 96.175 173.457 96.36 174.137 96.73C174.827 97.1 175.352 97.65 175.712 98.38C176.072 99.1 176.252 99.99 176.252 101.05C176.252 102.11 176.072 103.01 175.712 103.75C175.352 104.49 174.837 105.05 174.167 105.43C173.497 105.81 172.682 106 171.722 106H169.157ZM170.657 104.785H171.557C172.247 104.785 172.822 104.645 173.282 104.365C173.752 104.075 174.107 103.655 174.347 103.105C174.587 102.555 174.707 101.87 174.707 101.05C174.707 100.23 174.587 99.55 174.347 99.01C174.107 98.47 173.752 98.065 173.282 97.795C172.822 97.525 172.247 97.39 171.557 97.39H170.657V104.785ZM181.406 106.18C180.766 106.18 180.166 106.03 179.606 105.73C179.056 105.43 178.606 104.995 178.256 104.425C177.916 103.845 177.746 103.15 177.746 102.34C177.746 101.53 177.916 100.84 178.256 100.27C178.606 99.69 179.056 99.25 179.606 98.95C180.166 98.64 180.766 98.485 181.406 98.485C182.046 98.485 182.641 98.64 183.191 98.95C183.751 99.25 184.201 99.69 184.541 100.27C184.891 100.84 185.066 101.53 185.066 102.34C185.066 103.15 184.891 103.845 184.541 104.425C184.201 104.995 183.751 105.43 183.191 105.73C182.641 106.03 182.046 106.18 181.406 106.18ZM181.406 104.965C181.836 104.965 182.211 104.855 182.531 104.635C182.851 104.415 183.096 104.11 183.266 103.72C183.446 103.33 183.536 102.87 183.536 102.34C183.536 101.82 183.446 101.365 183.266 100.975C183.096 100.575 182.851 100.265 182.531 100.045C182.211 99.825 181.836 99.715 181.406 99.715C180.976 99.715 180.601 99.825 180.281 100.045C179.961 100.265 179.711 100.575 179.531 100.975C179.361 101.365 179.276 101.82 179.276 102.34C179.276 102.87 179.361 103.33 179.531 103.72C179.711 104.11 179.961 104.415 180.281 104.635C180.601 104.855 180.976 104.965 181.406 104.965ZM191.075 106.18C190.315 106.18 189.63 106.03 189.02 105.73C188.41 105.43 187.925 104.995 187.565 104.425C187.215 103.845 187.04 103.15 187.04 102.34C187.04 101.53 187.23 100.84 187.61 100.27C187.99 99.69 188.49 99.25 189.11 98.95C189.74 98.64 190.425 98.485 191.165 98.485C191.765 98.485 192.29 98.59 192.74 98.8C193.19 99 193.565 99.245 193.865 99.535L193.145 100.48C192.845 100.24 192.54 100.055 192.23 99.925C191.93 99.785 191.6 99.715 191.24 99.715C190.72 99.715 190.255 99.825 189.845 100.045C189.445 100.265 189.13 100.575 188.9 100.975C188.68 101.365 188.57 101.82 188.57 102.34C188.57 102.87 188.68 103.33 188.9 103.72C189.12 104.11 189.425 104.415 189.815 104.635C190.215 104.855 190.675 104.965 191.195 104.965C191.635 104.965 192.035 104.88 192.395 104.71C192.755 104.54 193.08 104.335 193.37 104.095L194.015 105.055C193.605 105.415 193.145 105.695 192.635 105.895C192.135 106.085 191.615 106.18 191.075 106.18ZM198.495 106.18C197.635 106.18 197 105.925 196.59 105.415C196.19 104.905 195.99 104.17 195.99 103.21V98.665H197.475V103.015C197.475 103.665 197.59 104.145 197.82 104.455C198.06 104.755 198.455 104.905 199.005 104.905C199.395 104.905 199.745 104.81 200.055 104.62C200.365 104.43 200.7 104.12 201.06 103.69V98.665H202.545V106H201.33L201.21 104.785H201.15C200.79 105.195 200.395 105.53 199.965 105.79C199.545 106.05 199.055 106.18 198.495 106.18ZM204.669 106V98.665H205.839L205.959 99.625H205.989C206.169 99.295 206.384 99.025 206.634 98.815C206.884 98.595 207.219 98.485 207.639 98.485C207.989 98.485 208.279 98.59 208.509 98.8C208.739 99.01 208.899 99.325 208.989 99.745C209.189 99.365 209.414 99.06 209.664 98.83C209.924 98.6 210.264 98.485 210.684 98.485C211.204 98.485 211.604 98.685 211.884 99.085C212.174 99.485 212.319 100.05 212.319 100.78V106H210.864V100.885C210.864 100.135 210.639 99.76 210.189 99.76C209.969 99.76 209.784 99.845 209.634 100.015C209.484 100.185 209.319 100.44 209.139 100.78V106H207.849V100.885C207.849 100.515 207.794 100.235 207.684 100.045C207.584 99.855 207.419 99.76 207.189 99.76C206.969 99.76 206.774 99.845 206.604 100.015C206.444 100.185 206.284 100.44 206.124 100.78V106H204.669ZM217.833 106.18C217.093 106.18 216.418 106.03 215.808 105.73C215.208 105.43 214.733 104.99 214.383 104.41C214.033 103.83 213.858 103.135 213.858 102.325C213.858 101.525 214.033 100.84 214.383 100.27C214.743 99.7 215.208 99.26 215.778 98.95C216.348 98.64 216.958 98.485 217.608 98.485C218.328 98.485 218.938 98.635 219.438 98.935C219.938 99.225 220.318 99.63 220.578 100.15C220.848 100.66 220.983 101.26 220.983 101.95C220.983 102.1 220.978 102.25 220.968 102.4C220.958 102.54 220.943 102.66 220.923 102.76H214.893V101.665H219.993L219.663 102.025C219.663 101.235 219.483 100.645 219.123 100.255C218.763 99.855 218.273 99.655 217.653 99.655C217.223 99.655 216.828 99.76 216.468 99.97C216.118 100.17 215.838 100.47 215.628 100.87C215.418 101.26 215.313 101.745 215.313 102.325C215.313 102.925 215.428 103.425 215.658 103.825C215.898 104.215 216.218 104.51 216.618 104.71C217.028 104.91 217.498 105.01 218.028 105.01C218.438 105.01 218.813 104.955 219.153 104.845C219.493 104.725 219.828 104.565 220.158 104.365L220.683 105.31C220.313 105.56 219.888 105.77 219.408 105.94C218.928 106.1 218.403 106.18 217.833 106.18ZM223.197 106V98.665H224.412L224.532 99.85H224.592C224.962 99.47 225.362 99.15 225.792 98.89C226.222 98.62 226.722 98.485 227.292 98.485C228.142 98.485 228.767 98.745 229.167 99.265C229.577 99.775 229.782 100.505 229.782 101.455V106H228.297V101.65C228.297 101.01 228.177 100.54 227.937 100.24C227.707 99.93 227.317 99.775 226.767 99.775C226.377 99.775 226.027 99.875 225.717 100.075C225.407 100.265 225.062 100.555 224.682 100.945V106H223.197ZM236.766 106.18C236.026 106.18 235.441 106.05 235.011 105.79C234.591 105.53 234.291 105.17 234.111 104.71C233.931 104.25 233.841 103.715 233.841 103.105V99.865H231.831V98.755L233.901 98.665L234.096 96.355H235.326V98.665H238.791V99.865H235.326V103.105C235.326 103.515 235.381 103.865 235.491 104.155C235.601 104.435 235.786 104.645 236.046 104.785C236.306 104.915 236.656 104.98 237.096 104.98C237.426 104.98 237.726 104.955 237.996 104.905C238.266 104.845 238.526 104.77 238.776 104.68L239.076 105.76C238.746 105.87 238.391 105.965 238.011 106.045C237.641 106.135 237.226 106.18 236.766 106.18ZM247.305 105.34L241.65 101.56V100.48L247.305 96.7V98.095L242.925 100.99V101.05L247.305 103.945V105.34ZM250.254 108.4L255.174 95.35H256.464L251.544 108.4H250.254ZM304.384 105.34V103.945L308.764 101.05V100.99L304.384 98.095V96.7L310.039 100.48V101.56L304.384 105.34ZM76.4166 124.34L70.7616 120.56V119.48L76.4166 115.7V117.095L72.0366 119.99V120.05L76.4166 122.945V124.34ZM79.3657 127.4L84.2857 114.35H85.5757L80.6557 127.4H79.3657ZM124.501 124.34V122.945L128.881 120.05V119.99L124.501 117.095V115.7L130.156 119.48V120.56L124.501 124.34ZM76.4166 143.34L70.7616 139.56V138.48L76.4166 134.7V136.095L72.0366 138.99V139.05L76.4166 141.945V143.34ZM115.507 143.34V141.945L119.887 139.05V138.99L115.507 136.095V134.7L121.162 138.48V139.56L115.507 143.34ZM112.393 162.34L106.738 158.56V157.48L112.393 153.7V155.095L108.013 157.99V158.05L112.393 160.945V162.34ZM142.49 162.34V160.945L146.87 158.05V157.99L142.49 155.095V153.7L148.145 157.48V158.56L142.49 162.34ZM148.37 181.34L142.715 177.56V176.48L148.37 172.7V174.095L143.99 176.99V177.05L148.37 179.945V181.34ZM169.472 181.34V179.945L173.852 177.05V176.99L169.472 174.095V172.7L175.127 176.48V177.56L169.472 181.34ZM178.031 182V172.175H179.546V176.21H183.266V172.175H184.781V182H183.266V177.515H179.546V182H178.031ZM190.85 182.18C190.11 182.18 189.435 182.03 188.825 181.73C188.225 181.43 187.75 180.99 187.4 180.41C187.05 179.83 186.875 179.135 186.875 178.325C186.875 177.525 187.05 176.84 187.4 176.27C187.76 175.7 188.225 175.26 188.795 174.95C189.365 174.64 189.975 174.485 190.625 174.485C191.345 174.485 191.955 174.635 192.455 174.935C192.955 175.225 193.335 175.63 193.595 176.15C193.865 176.66 194 177.26 194 177.95C194 178.1 193.995 178.25 193.985 178.4C193.975 178.54 193.96 178.66 193.94 178.76H187.91V177.665H193.01L192.68 178.025C192.68 177.235 192.5 176.645 192.14 176.255C191.78 175.855 191.29 175.655 190.67 175.655C190.24 175.655 189.845 175.76 189.485 175.97C189.135 176.17 188.855 176.47 188.645 176.87C188.435 177.26 188.33 177.745 188.33 178.325C188.33 178.925 188.445 179.425 188.675 179.825C188.915 180.215 189.235 180.51 189.635 180.71C190.045 180.91 190.515 181.01 191.045 181.01C191.455 181.01 191.83 180.955 192.17 180.845C192.51 180.725 192.845 180.565 193.175 180.365L193.7 181.31C193.33 181.56 192.905 181.77 192.425 181.94C191.945 182.1 191.42 182.18 190.85 182.18ZM200.94 182.18C200.13 182.18 199.51 181.945 199.08 181.475C198.65 180.995 198.435 180.315 198.435 179.435V172.565H195.99V171.365H199.92V179.525C199.92 180.035 200.05 180.405 200.31 180.635C200.57 180.855 200.895 180.965 201.285 180.965C201.485 180.965 201.69 180.94 201.9 180.89C202.12 180.84 202.36 180.76 202.62 180.65L202.98 181.76C202.63 181.88 202.305 181.98 202.005 182.06C201.715 182.14 201.36 182.18 200.94 182.18ZM209.934 182.18C209.124 182.18 208.504 181.945 208.074 181.475C207.644 180.995 207.429 180.315 207.429 179.435V172.565H204.984V171.365H208.914V179.525C208.914 180.035 209.044 180.405 209.304 180.635C209.564 180.855 209.889 180.965 210.279 180.965C210.479 180.965 210.684 180.94 210.894 180.89C211.114 180.84 211.354 180.76 211.614 180.65L211.974 181.76C211.624 181.88 211.299 181.98 210.999 182.06C210.709 182.14 210.354 182.18 209.934 182.18ZM217.383 182.18C216.743 182.18 216.143 182.03 215.583 181.73C215.033 181.43 214.583 180.995 214.233 180.425C213.893 179.845 213.723 179.15 213.723 178.34C213.723 177.53 213.893 176.84 214.233 176.27C214.583 175.69 215.033 175.25 215.583 174.95C216.143 174.64 216.743 174.485 217.383 174.485C218.023 174.485 218.618 174.64 219.168 174.95C219.728 175.25 220.178 175.69 220.518 176.27C220.868 176.84 221.043 177.53 221.043 178.34C221.043 179.15 220.868 179.845 220.518 180.425C220.178 180.995 219.728 181.43 219.168 181.73C218.618 182.03 218.023 182.18 217.383 182.18ZM217.383 180.965C217.813 180.965 218.188 180.855 218.508 180.635C218.828 180.415 219.073 180.11 219.243 179.72C219.423 179.33 219.513 178.87 219.513 178.34C219.513 177.82 219.423 177.365 219.243 176.975C219.073 176.575 218.828 176.265 218.508 176.045C218.188 175.825 217.813 175.715 217.383 175.715C216.953 175.715 216.578 175.825 216.258 176.045C215.938 176.265 215.688 176.575 215.508 176.975C215.338 177.365 215.253 177.82 215.253 178.34C215.253 178.87 215.338 179.33 215.508 179.72C215.688 180.11 215.938 180.415 216.258 180.635C216.578 180.855 216.953 180.965 217.383 180.965ZM232.446 182L231.006 172.16H232.641L233.241 178.085C233.271 178.365 233.296 178.625 233.316 178.865C233.336 179.095 233.351 179.33 233.361 179.57C233.381 179.81 233.396 180.09 233.406 180.41H233.451C233.511 180.09 233.566 179.81 233.616 179.57C233.666 179.33 233.716 179.095 233.766 178.865C233.816 178.625 233.871 178.37 233.931 178.1L234.816 174.68H236.076L236.916 178.1C236.986 178.37 237.046 178.62 237.096 178.85C237.146 179.08 237.196 179.32 237.246 179.57C237.296 179.81 237.346 180.09 237.396 180.41H237.456C237.476 180.09 237.491 179.81 237.501 179.57C237.511 179.32 237.526 179.08 237.546 178.85C237.566 178.62 237.586 178.37 237.606 178.1L238.191 172.16H239.751L238.371 182H236.601L235.731 178.28C235.671 177.98 235.611 177.68 235.551 177.38C235.491 177.08 235.441 176.78 235.401 176.48H235.356C235.316 176.78 235.271 177.08 235.221 177.38C235.171 177.68 235.106 177.98 235.026 178.28L234.171 182H232.446ZM244.365 182.18C243.725 182.18 243.125 182.03 242.565 181.73C242.015 181.43 241.565 180.995 241.215 180.425C240.875 179.845 240.705 179.15 240.705 178.34C240.705 177.53 240.875 176.84 241.215 176.27C241.565 175.69 242.015 175.25 242.565 174.95C243.125 174.64 243.725 174.485 244.365 174.485C245.005 174.485 245.6 174.64 246.15 174.95C246.71 175.25 247.16 175.69 247.5 176.27C247.85 176.84 248.025 177.53 248.025 178.34C248.025 179.15 247.85 179.845 247.5 180.425C247.16 180.995 246.71 181.43 246.15 181.73C245.6 182.03 245.005 182.18 244.365 182.18ZM244.365 180.965C244.795 180.965 245.17 180.855 245.49 180.635C245.81 180.415 246.055 180.11 246.225 179.72C246.405 179.33 246.495 178.87 246.495 178.34C246.495 177.82 246.405 177.365 246.225 176.975C246.055 176.575 245.81 176.265 245.49 176.045C245.17 175.825 244.795 175.715 244.365 175.715C243.935 175.715 243.56 175.825 243.24 176.045C242.92 176.265 242.67 176.575 242.49 176.975C242.32 177.365 242.235 177.82 242.235 178.34C242.235 178.87 242.32 179.33 242.49 179.72C242.67 180.11 242.92 180.415 243.24 180.635C243.56 180.855 243.935 180.965 244.365 180.965ZM250.929 182V174.665H252.159L252.279 176.375H252.324C252.704 175.775 253.169 175.31 253.719 174.98C254.269 174.65 254.869 174.485 255.519 174.485C255.799 174.485 256.054 174.51 256.284 174.56C256.514 174.61 256.739 174.685 256.959 174.785L256.629 176.06C256.379 175.97 256.164 175.91 255.984 175.88C255.804 175.84 255.574 175.82 255.294 175.82C254.764 175.82 254.254 175.97 253.764 176.27C253.274 176.57 252.824 177.09 252.414 177.83V182H250.929ZM263.899 182.18C263.089 182.18 262.469 181.945 262.039 181.475C261.609 180.995 261.394 180.315 261.394 179.435V172.565H258.949V171.365H262.879V179.525C262.879 180.035 263.009 180.405 263.269 180.635C263.529 180.855 263.854 180.965 264.244 180.965C264.444 180.965 264.649 180.94 264.859 180.89C265.079 180.84 265.319 180.76 265.579 180.65L265.939 181.76C265.589 181.88 265.264 181.98 264.964 182.06C264.674 182.14 264.319 182.18 263.899 182.18ZM270.853 182.18C269.903 182.18 269.138 181.845 268.558 181.175C267.978 180.495 267.688 179.55 267.688 178.34C267.688 177.55 267.843 176.87 268.153 176.3C268.473 175.72 268.883 175.275 269.383 174.965C269.883 174.645 270.413 174.485 270.973 174.485C271.403 174.485 271.788 174.565 272.128 174.725C272.468 174.885 272.783 175.11 273.073 175.4H273.118L273.043 174.095V171.365H274.528V182H273.313L273.193 181.1H273.148C272.858 181.39 272.513 181.645 272.113 181.865C271.713 182.075 271.293 182.18 270.853 182.18ZM271.198 180.95C271.528 180.95 271.843 180.87 272.143 180.71C272.453 180.54 272.753 180.29 273.043 179.96V176.48C272.753 176.21 272.463 176.02 272.173 175.91C271.883 175.79 271.593 175.73 271.303 175.73C270.923 175.73 270.573 175.835 270.253 176.045C269.943 176.255 269.693 176.555 269.503 176.945C269.313 177.335 269.218 177.795 269.218 178.325C269.218 179.165 269.393 179.815 269.743 180.275C270.093 180.725 270.578 180.95 271.198 180.95ZM279.847 178.43L279.652 173.51L279.607 171.95H281.077L281.032 173.51L280.837 178.43H279.847ZM280.342 182.18C280.012 182.18 279.727 182.065 279.487 181.835C279.257 181.605 279.142 181.3 279.142 180.92C279.142 180.54 279.257 180.24 279.487 180.02C279.727 179.79 280.012 179.675 280.342 179.675C280.682 179.675 280.967 179.79 281.197 180.02C281.427 180.24 281.542 180.54 281.542 180.92C281.542 181.3 281.427 181.605 281.197 181.835C280.967 182.065 280.682 182.18 280.342 182.18ZM292.276 181.34L286.621 177.56V176.48L292.276 172.7V174.095L287.896 176.99V177.05L292.276 179.945V181.34ZM295.225 184.4L300.145 171.35H301.435L296.515 184.4H295.225ZM322.373 181.34V179.945L326.753 177.05V176.99L322.373 174.095V172.7L328.028 176.48V177.56L322.373 181.34ZM112.393 200.34L106.738 196.56V195.48L112.393 191.7V193.095L108.013 195.99V196.05L112.393 198.945V200.34ZM115.342 203.4L120.262 190.35H121.552L116.632 203.4H115.342ZM151.484 200.34V198.945L155.864 196.05V195.99L151.484 193.095V191.7L157.139 195.48V196.56L151.484 200.34ZM85.4107 219.34L79.7557 215.56V214.48L85.4107 210.7V212.095L81.0307 214.99V215.05L85.4107 217.945V219.34ZM88.3598 222.4L93.2798 209.35H94.5698L89.6498 222.4H88.3598ZM133.496 219.34V217.945L137.876 215.05V214.99L133.496 212.095V210.7L139.151 214.48V215.56L133.496 219.34ZM40.44 238.34L34.785 234.56V233.48L40.44 229.7V231.095L36.06 233.99V234.05L40.44 236.945V238.34ZM43.3891 241.4L48.3091 228.35H49.5991L44.6791 241.4H43.3891ZM88.5248 238.34V236.945L92.9048 234.05V233.99L88.5248 231.095V229.7L94.1798 233.48V234.56L88.5248 238.34Z" fill="black"/>
<path d="M52.2333 49V39.175H54.7233C55.7033 39.175 56.5333 39.36 57.2133 39.73C57.9033 40.1 58.4283 40.65 58.7883 41.38C59.1483 42.1 59.3283 42.99 59.3283 44.05C59.3283 45.11 59.1483 46.01 58.7883 46.75C58.4283 47.49 57.9133 48.05 57.2433 48.43C56.5733 48.81 55.7583 49 54.7983 49H52.2333ZM53.7333 47.785H54.6333C55.3233 47.785 55.8983 47.645 56.3583 47.365C56.8283 47.075 57.1833 46.655 57.4233 46.105C57.6633 45.555 57.7833 44.87 57.7833 44.05C57.7833 43.23 57.6633 42.55 57.4233 42.01C57.1833 41.47 56.8283 41.065 56.3583 40.795C55.8983 40.525 55.3233 40.39 54.6333 40.39H53.7333V47.785ZM64.4824 49.18C63.7324 49.18 63.0674 48.98 62.4874 48.58C61.9174 48.17 61.4674 47.585 61.1374 46.825C60.8174 46.055 60.6574 45.13 60.6574 44.05C60.6574 42.98 60.8174 42.07 61.1374 41.32C61.4674 40.56 61.9174 39.985 62.4874 39.595C63.0674 39.195 63.7324 38.995 64.4824 38.995C65.2324 38.995 65.8924 39.195 66.4624 39.595C67.0424 39.985 67.4924 40.56 67.8124 41.32C68.1424 42.07 68.3074 42.98 68.3074 44.05C68.3074 45.13 68.1424 46.055 67.8124 46.825C67.4924 47.585 67.0424 48.17 66.4624 48.58C65.8924 48.98 65.2324 49.18 64.4824 49.18ZM64.4824 47.875C64.9424 47.875 65.3424 47.725 65.6824 47.425C66.0224 47.115 66.2874 46.675 66.4774 46.105C66.6674 45.535 66.7624 44.85 66.7624 44.05C66.7624 43.25 66.6674 42.575 66.4774 42.025C66.2874 41.465 66.0224 41.04 65.6824 40.75C65.3424 40.45 64.9424 40.3 64.4824 40.3C64.0224 40.3 63.6224 40.45 63.2824 40.75C62.9424 41.04 62.6774 41.465 62.4874 42.025C62.2974 42.575 62.2024 43.25 62.2024 44.05C62.2024 44.85 62.2974 45.535 62.4874 46.105C62.6774 46.675 62.9424 47.115 63.2824 47.425C63.6224 47.725 64.0224 47.875 64.4824 47.875ZM74.2566 49.18C73.6466 49.18 73.0766 49.07 72.5466 48.85C72.0266 48.62 71.5666 48.29 71.1666 47.86C70.7766 47.42 70.4666 46.885 70.2366 46.255C70.0166 45.625 69.9066 44.91 69.9066 44.11C69.9066 43.04 70.1016 42.125 70.4916 41.365C70.8816 40.595 71.4116 40.01 72.0816 39.61C72.7516 39.2 73.5166 38.995 74.3766 38.995C74.9766 38.995 75.5116 39.12 75.9816 39.37C76.4516 39.61 76.8366 39.89 77.1366 40.21L76.2966 41.155C76.0466 40.885 75.7616 40.675 75.4416 40.525C75.1316 40.375 74.7766 40.3 74.3766 40.3C73.7966 40.3 73.2866 40.455 72.8466 40.765C72.4066 41.065 72.0616 41.495 71.8116 42.055C71.5716 42.615 71.4516 43.285 71.4516 44.065C71.4516 44.845 71.5716 45.52 71.8116 46.09C72.0616 46.66 72.4066 47.1 72.8466 47.41C73.2966 47.72 73.8166 47.875 74.4066 47.875C74.8366 47.875 75.2216 47.785 75.5616 47.605C75.9016 47.415 76.2166 47.16 76.5066 46.84L77.3466 47.755C76.9666 48.205 76.5216 48.555 76.0116 48.805C75.5016 49.055 74.9166 49.18 74.2566 49.18ZM81.7207 49V40.435H78.5557V39.175H86.3857V40.435H83.2207V49H81.7207ZM90.7148 49V45.55L87.4448 39.175H89.0348L90.3998 41.95C90.5798 42.32 90.7548 42.695 90.9248 43.075C91.0948 43.445 91.2748 43.83 91.4648 44.23H91.5248C91.7148 43.83 91.8998 43.445 92.0798 43.075C92.2598 42.695 92.4398 42.315 92.6198 41.935L93.9248 39.175H95.4848L92.2148 45.55V49H90.7148ZM97.384 49V39.175H100.489C101.209 39.175 101.844 39.27 102.394 39.46C102.954 39.64 103.389 39.95 103.699 40.39C104.009 40.82 104.164 41.4 104.164 42.13C104.164 42.84 104.004 43.425 103.684 43.885C103.374 44.345 102.939 44.69 102.379 44.92C101.829 45.14 101.199 45.25 100.489 45.25H98.884V49H97.384ZM98.884 44.035H100.339C101.139 44.035 101.729 43.88 102.109 43.57C102.489 43.26 102.679 42.78 102.679 42.13C102.679 41.47 102.484 41.015 102.094 40.765C101.704 40.505 101.119 40.375 100.339 40.375H98.884V44.035ZM106.588 49V39.175H112.768V40.435H108.088V43.24H112.048V44.5H108.088V47.74H112.918V49H106.588ZM43.3141 68V57.365H44.7991V60.185L44.7091 61.835H44.7541C45.1041 61.465 45.4941 61.15 45.9241 60.89C46.3541 60.62 46.8491 60.485 47.4091 60.485C48.2691 60.485 48.8991 60.745 49.2991 61.265C49.6991 61.775 49.8991 62.505 49.8991 63.455V68H48.4141V63.65C48.4141 63.01 48.2941 62.54 48.0541 62.24C47.8241 61.93 47.4341 61.775 46.8841 61.775C46.4941 61.775 46.1441 61.875 45.8341 62.075C45.5241 62.265 45.1791 62.555 44.7991 62.945V68H43.3141ZM56.8833 68.18C56.1433 68.18 55.5583 68.05 55.1283 67.79C54.7083 67.53 54.4083 67.17 54.2283 66.71C54.0483 66.25 53.9583 65.715 53.9583 65.105V61.865H51.9483V60.755L54.0183 60.665L54.2133 58.355H55.4433V60.665H58.9083V61.865H55.4433V65.105C55.4433 65.515 55.4983 65.865 55.6083 66.155C55.7183 66.435 55.9033 66.645 56.1633 66.785C56.4233 66.915 56.7733 66.98 57.2133 66.98C57.5433 66.98 57.8433 66.955 58.1133 66.905C58.3833 66.845 58.6433 66.77 58.8933 66.68L59.1933 67.76C58.8633 67.87 58.5083 67.965 58.1283 68.045C57.7583 68.135 57.3433 68.18 56.8833 68.18ZM60.7624 68V60.665H61.9324L62.0524 61.625H62.0824C62.2624 61.295 62.4774 61.025 62.7274 60.815C62.9774 60.595 63.3124 60.485 63.7324 60.485C64.0824 60.485 64.3724 60.59 64.6024 60.8C64.8324 61.01 64.9924 61.325 65.0824 61.745C65.2824 61.365 65.5074 61.06 65.7574 60.83C66.0174 60.6 66.3574 60.485 66.7774 60.485C67.2974 60.485 67.6974 60.685 67.9774 61.085C68.2674 61.485 68.4124 62.05 68.4124 62.78V68H66.9574V62.885C66.9574 62.135 66.7324 61.76 66.2824 61.76C66.0624 61.76 65.8774 61.845 65.7274 62.015C65.5774 62.185 65.4124 62.44 65.2324 62.78V68H63.9424V62.885C63.9424 62.515 63.8874 62.235 63.7774 62.045C63.6774 61.855 63.5124 61.76 63.2824 61.76C63.0624 61.76 62.8674 61.845 62.6974 62.015C62.5374 62.185 62.3774 62.44 62.2174 62.78V68H60.7624ZM75.0216 68.18C74.2116 68.18 73.5916 67.945 73.1616 67.475C72.7316 66.995 72.5166 66.315 72.5166 65.435V58.565H70.0716V57.365H74.0016V65.525C74.0016 66.035 74.1316 66.405 74.3916 66.635C74.6516 66.855 74.9766 66.965 75.3666 66.965C75.5666 66.965 75.7716 66.94 75.9816 66.89C76.2016 66.84 76.4416 66.76 76.7016 66.65L77.0616 67.76C76.7116 67.88 76.3866 67.98 76.0866 68.06C75.7966 68.14 75.4416 68.18 75.0216 68.18ZM79.2907 87V76.365H80.7757V79.185L80.6857 80.835H80.7307C81.0807 80.465 81.4707 80.15 81.9007 79.89C82.3307 79.62 82.8257 79.485 83.3857 79.485C84.2457 79.485 84.8757 79.745 85.2757 80.265C85.6757 80.775 85.8757 81.505 85.8757 82.455V87H84.3907V82.65C84.3907 82.01 84.2707 81.54 84.0307 81.24C83.8007 80.93 83.4107 80.775 82.8607 80.775C82.4707 80.775 82.1207 80.875 81.8107 81.075C81.5007 81.265 81.1557 81.555 80.7757 81.945V87H79.2907ZM91.9148 87.18C91.1748 87.18 90.4998 87.03 89.8898 86.73C89.2898 86.43 88.8148 85.99 88.4648 85.41C88.1148 84.83 87.9398 84.135 87.9398 83.325C87.9398 82.525 88.1148 81.84 88.4648 81.27C88.8248 80.7 89.2898 80.26 89.8598 79.95C90.4298 79.64 91.0398 79.485 91.6898 79.485C92.4098 79.485 93.0198 79.635 93.5198 79.935C94.0198 80.225 94.3998 80.63 94.6598 81.15C94.9298 81.66 95.0648 82.26 95.0648 82.95C95.0648 83.1 95.0598 83.25 95.0498 83.4C95.0398 83.54 95.0248 83.66 95.0048 83.76H88.9748V82.665H94.0748L93.7448 83.025C93.7448 82.235 93.5648 81.645 93.2048 81.255C92.8448 80.855 92.3548 80.655 91.7348 80.655C91.3048 80.655 90.9098 80.76 90.5498 80.97C90.1998 81.17 89.9198 81.47 89.7098 81.87C89.4998 82.26 89.3948 82.745 89.3948 83.325C89.3948 83.925 89.5098 84.425 89.7398 84.825C89.9798 85.215 90.2998 85.51 90.6998 85.71C91.1098 85.91 91.5798 86.01 92.1098 86.01C92.5198 86.01 92.8948 85.955 93.2348 85.845C93.5748 85.725 93.9098 85.565 94.2398 85.365L94.7648 86.31C94.3948 86.56 93.9698 86.77 93.4898 86.94C93.0098 87.1 92.4848 87.18 91.9148 87.18ZM99.574 87.18C99.104 87.18 98.679 87.095 98.299 86.925C97.929 86.745 97.634 86.5 97.414 86.19C97.204 85.87 97.099 85.495 97.099 85.065C97.099 84.245 97.499 83.62 98.299 83.19C99.109 82.76 100.434 82.475 102.274 82.335C102.264 82.035 102.194 81.76 102.064 81.51C101.944 81.26 101.749 81.065 101.479 80.925C101.219 80.775 100.874 80.7 100.444 80.7C100.144 80.7 99.849 80.74 99.559 80.82C99.269 80.89 98.989 80.99 98.719 81.12C98.449 81.25 98.194 81.385 97.954 81.525L97.399 80.52C97.669 80.36 97.979 80.2 98.329 80.04C98.679 79.87 99.054 79.735 99.454 79.635C99.864 79.535 100.279 79.485 100.699 79.485C101.379 79.485 101.944 79.61 102.394 79.86C102.844 80.11 103.184 80.465 103.414 80.925C103.644 81.385 103.759 81.94 103.759 82.59V87H102.544L102.424 86.055H102.379C101.989 86.355 101.549 86.62 101.059 86.85C100.569 87.07 100.074 87.18 99.574 87.18ZM99.994 85.995C100.384 85.995 100.769 85.91 101.149 85.74C101.529 85.57 101.904 85.33 102.274 85.02V83.28C101.314 83.35 100.559 83.46 100.009 83.61C99.469 83.76 99.089 83.95 98.869 84.18C98.649 84.4 98.539 84.66 98.539 84.96C98.539 85.2 98.604 85.4 98.734 85.56C98.874 85.71 99.054 85.82 99.274 85.89C99.494 85.96 99.734 85.995 99.994 85.995ZM108.958 87.18C108.008 87.18 107.243 86.845 106.663 86.175C106.083 85.495 105.793 84.55 105.793 83.34C105.793 82.55 105.948 81.87 106.258 81.3C106.578 80.72 106.988 80.275 107.488 79.965C107.988 79.645 108.518 79.485 109.078 79.485C109.508 79.485 109.893 79.565 110.233 79.725C110.573 79.885 110.888 80.11 111.178 80.4H111.223L111.148 79.095V76.365H112.633V87H111.418L111.298 86.1H111.253C110.963 86.39 110.618 86.645 110.218 86.865C109.818 87.075 109.398 87.18 108.958 87.18ZM109.303 85.95C109.633 85.95 109.948 85.87 110.248 85.71C110.558 85.54 110.858 85.29 111.148 84.96V81.48C110.858 81.21 110.568 81.02 110.278 80.91C109.988 80.79 109.698 80.73 109.408 80.73C109.028 80.73 108.678 80.835 108.358 81.045C108.048 81.255 107.798 81.555 107.608 81.945C107.418 82.335 107.323 82.795 107.323 83.325C107.323 84.165 107.498 84.815 107.848 85.275C108.198 85.725 108.683 85.95 109.303 85.95ZM119.842 106.18C119.102 106.18 118.517 106.05 118.087 105.79C117.667 105.53 117.367 105.17 117.187 104.71C117.007 104.25 116.917 103.715 116.917 103.105V99.865H114.907V98.755L116.977 98.665L117.172 96.355H118.402V98.665H121.867V99.865H118.402V103.105C118.402 103.515 118.457 103.865 118.567 104.155C118.677 104.435 118.862 104.645 119.122 104.785C119.382 104.915 119.732 104.98 120.172 104.98C120.502 104.98 120.802 104.955 121.072 104.905C121.342 104.845 121.602 104.77 121.852 104.68L122.152 105.76C121.822 105.87 121.467 105.965 121.087 106.045C120.717 106.135 120.302 106.18 119.842 106.18ZM127.531 106V99.865H124.246V98.665H129.016V106H127.531ZM128.146 97.24C127.826 97.24 127.561 97.145 127.351 96.955C127.141 96.755 127.036 96.495 127.036 96.175C127.036 95.855 127.141 95.6 127.351 95.41C127.561 95.21 127.826 95.11 128.146 95.11C128.466 95.11 128.731 95.21 128.941 95.41C129.151 95.6 129.256 95.855 129.256 96.175C129.256 96.495 129.151 96.755 128.941 96.955C128.731 97.145 128.466 97.24 128.146 97.24ZM137.831 106.18C137.091 106.18 136.506 106.05 136.076 105.79C135.656 105.53 135.356 105.17 135.176 104.71C134.996 104.25 134.906 103.715 134.906 103.105V99.865H132.896V98.755L134.966 98.665L135.161 96.355H136.391V98.665H139.856V99.865H136.391V103.105C136.391 103.515 136.446 103.865 136.556 104.155C136.666 104.435 136.851 104.645 137.111 104.785C137.371 104.915 137.721 104.98 138.161 104.98C138.491 104.98 138.791 104.955 139.061 104.905C139.331 104.845 139.591 104.77 139.841 104.68L140.141 105.76C139.811 105.87 139.456 105.965 139.076 106.045C138.706 106.135 138.291 106.18 137.831 106.18ZM146.975 106.18C146.165 106.18 145.545 105.945 145.115 105.475C144.685 104.995 144.47 104.315 144.47 103.435V96.565H142.025V95.365H145.955V103.525C145.955 104.035 146.085 104.405 146.345 104.635C146.605 104.855 146.93 104.965 147.32 104.965C147.52 104.965 147.725 104.94 147.935 104.89C148.155 104.84 148.395 104.76 148.655 104.65L149.015 105.76C148.665 105.88 148.34 105.98 148.04 106.06C147.75 106.14 147.395 106.18 146.975 106.18ZM154.874 106.18C154.134 106.18 153.459 106.03 152.849 105.73C152.249 105.43 151.774 104.99 151.424 104.41C151.074 103.83 150.899 103.135 150.899 102.325C150.899 101.525 151.074 100.84 151.424 100.27C151.784 99.7 152.249 99.26 152.819 98.95C153.389 98.64 153.999 98.485 154.649 98.485C155.369 98.485 155.979 98.635 156.479 98.935C156.979 99.225 157.359 99.63 157.619 100.15C157.889 100.66 158.024 101.26 158.024 101.95C158.024 102.1 158.019 102.25 158.009 102.4C157.999 102.54 157.984 102.66 157.964 102.76H151.934V101.665H157.034L156.704 102.025C156.704 101.235 156.524 100.645 156.164 100.255C155.804 99.855 155.314 99.655 154.694 99.655C154.264 99.655 153.869 99.76 153.509 99.97C153.159 100.17 152.879 100.47 152.669 100.87C152.459 101.26 152.354 101.745 152.354 102.325C152.354 102.925 152.469 103.425 152.699 103.825C152.939 104.215 153.259 104.51 153.659 104.71C154.069 104.91 154.539 105.01 155.069 105.01C155.479 105.01 155.854 104.955 156.194 104.845C156.534 104.725 156.869 104.565 157.199 104.365L157.724 105.31C157.354 105.56 156.929 105.77 156.449 105.94C155.969 106.1 155.444 106.18 154.874 106.18ZM263.749 106.18C263.009 106.18 262.424 106.05 261.994 105.79C261.574 105.53 261.274 105.17 261.094 104.71C260.914 104.25 260.824 103.715 260.824 103.105V99.865H258.814V98.755L260.884 98.665L261.079 96.355H262.309V98.665H265.774V99.865H262.309V103.105C262.309 103.515 262.364 103.865 262.474 104.155C262.584 104.435 262.769 104.645 263.029 104.785C263.289 104.915 263.639 104.98 264.079 104.98C264.409 104.98 264.709 104.955 264.979 104.905C265.249 104.845 265.509 104.77 265.759 104.68L266.059 105.76C265.729 105.87 265.374 105.965 264.994 106.045C264.624 106.135 264.209 106.18 263.749 106.18ZM271.438 106V99.865H268.153V98.665H272.923V106H271.438ZM272.053 97.24C271.733 97.24 271.468 97.145 271.258 96.955C271.048 96.755 270.943 96.495 270.943 96.175C270.943 95.855 271.048 95.6 271.258 95.41C271.468 95.21 271.733 95.11 272.053 95.11C272.373 95.11 272.638 95.21 272.848 95.41C273.058 95.6 273.163 95.855 273.163 96.175C273.163 96.495 273.058 96.755 272.848 96.955C272.638 97.145 272.373 97.24 272.053 97.24ZM281.737 106.18C280.997 106.18 280.412 106.05 279.982 105.79C279.562 105.53 279.262 105.17 279.082 104.71C278.902 104.25 278.812 103.715 278.812 103.105V99.865H276.802V98.755L278.872 98.665L279.067 96.355H280.297V98.665H283.762V99.865H280.297V103.105C280.297 103.515 280.352 103.865 280.462 104.155C280.572 104.435 280.757 104.645 281.017 104.785C281.277 104.915 281.627 104.98 282.067 104.98C282.397 104.98 282.697 104.955 282.967 104.905C283.237 104.845 283.497 104.77 283.747 104.68L284.047 105.76C283.717 105.87 283.362 105.965 282.982 106.045C282.612 106.135 282.197 106.18 281.737 106.18ZM290.881 106.18C290.071 106.18 289.451 105.945 289.021 105.475C288.591 104.995 288.376 104.315 288.376 103.435V96.565H285.931V95.365H289.861V103.525C289.861 104.035 289.991 104.405 290.251 104.635C290.511 104.855 290.836 104.965 291.226 104.965C291.426 104.965 291.631 104.94 291.841 104.89C292.061 104.84 292.301 104.76 292.561 104.65L292.921 105.76C292.571 105.88 292.246 105.98 291.946 106.06C291.656 106.14 291.301 106.18 290.881 106.18ZM298.78 106.18C298.04 106.18 297.365 106.03 296.755 105.73C296.155 105.43 295.68 104.99 295.33 104.41C294.98 103.83 294.805 103.135 294.805 102.325C294.805 101.525 294.98 100.84 295.33 100.27C295.69 99.7 296.155 99.26 296.725 98.95C297.295 98.64 297.905 98.485 298.555 98.485C299.275 98.485 299.885 98.635 300.385 98.935C300.885 99.225 301.265 99.63 301.525 100.15C301.795 100.66 301.93 101.26 301.93 101.95C301.93 102.1 301.925 102.25 301.915 102.4C301.905 102.54 301.89 102.66 301.87 102.76H295.84V101.665H300.94L300.61 102.025C300.61 101.235 300.43 100.645 300.07 100.255C299.71 99.855 299.22 99.655 298.6 99.655C298.17 99.655 297.775 99.76 297.415 99.97C297.065 100.17 296.785 100.47 296.575 100.87C296.365 101.26 296.26 101.745 296.26 102.325C296.26 102.925 296.375 103.425 296.605 103.825C296.845 104.215 297.165 104.51 297.565 104.71C297.975 104.91 298.445 105.01 298.975 105.01C299.385 105.01 299.76 104.955 300.1 104.845C300.44 104.725 300.775 104.565 301.105 104.365L301.63 105.31C301.26 105.56 300.835 105.77 300.355 105.94C299.875 106.1 299.35 106.18 298.78 106.18ZM88.2848 125V114.365H89.7698V117.185L89.6798 118.835H89.7248C90.0748 118.465 90.4648 118.15 90.8948 117.89C91.3248 117.62 91.8198 117.485 92.3798 117.485C93.2398 117.485 93.8698 117.745 94.2698 118.265C94.6698 118.775 94.8698 119.505 94.8698 120.455V125H93.3848V120.65C93.3848 120.01 93.2648 119.54 93.0248 119.24C92.7948 118.93 92.4048 118.775 91.8548 118.775C91.4648 118.775 91.1148 118.875 90.8048 119.075C90.4948 119.265 90.1498 119.555 89.7698 119.945V125H88.2848ZM100.909 125.18C100.169 125.18 99.494 125.03 98.884 124.73C98.284 124.43 97.809 123.99 97.459 123.41C97.109 122.83 96.934 122.135 96.934 121.325C96.934 120.525 97.109 119.84 97.459 119.27C97.819 118.7 98.284 118.26 98.854 117.95C99.424 117.64 100.034 117.485 100.684 117.485C101.404 117.485 102.014 117.635 102.514 117.935C103.014 118.225 103.394 118.63 103.654 119.15C103.924 119.66 104.059 120.26 104.059 120.95C104.059 121.1 104.054 121.25 104.044 121.4C104.034 121.54 104.019 121.66 103.999 121.76H97.969V120.665H103.069L102.739 121.025C102.739 120.235 102.559 119.645 102.199 119.255C101.839 118.855 101.349 118.655 100.729 118.655C100.299 118.655 99.904 118.76 99.544 118.97C99.194 119.17 98.914 119.47 98.704 119.87C98.494 120.26 98.389 120.745 98.389 121.325C98.389 121.925 98.504 122.425 98.734 122.825C98.974 123.215 99.294 123.51 99.694 123.71C100.104 123.91 100.574 124.01 101.104 124.01C101.514 124.01 101.889 123.955 102.229 123.845C102.569 123.725 102.904 123.565 103.234 123.365L103.759 124.31C103.389 124.56 102.964 124.77 102.484 124.94C102.004 125.1 101.479 125.18 100.909 125.18ZM108.568 125.18C108.098 125.18 107.673 125.095 107.293 124.925C106.923 124.745 106.628 124.5 106.408 124.19C106.198 123.87 106.093 123.495 106.093 123.065C106.093 122.245 106.493 121.62 107.293 121.19C108.103 120.76 109.428 120.475 111.268 120.335C111.258 120.035 111.188 119.76 111.058 119.51C110.938 119.26 110.743 119.065 110.473 118.925C110.213 118.775 109.868 118.7 109.438 118.7C109.138 118.7 108.843 118.74 108.553 118.82C108.263 118.89 107.983 118.99 107.713 119.12C107.443 119.25 107.188 119.385 106.948 119.525L106.393 118.52C106.663 118.36 106.973 118.2 107.323 118.04C107.673 117.87 108.048 117.735 108.448 117.635C108.858 117.535 109.273 117.485 109.693 117.485C110.373 117.485 110.938 117.61 111.388 117.86C111.838 118.11 112.178 118.465 112.408 118.925C112.638 119.385 112.753 119.94 112.753 120.59V125H111.538L111.418 124.055H111.373C110.983 124.355 110.543 124.62 110.053 124.85C109.563 125.07 109.068 125.18 108.568 125.18ZM108.988 123.995C109.378 123.995 109.763 123.91 110.143 123.74C110.523 123.57 110.898 123.33 111.268 123.02V121.28C110.308 121.35 109.553 121.46 109.003 121.61C108.463 121.76 108.083 121.95 107.863 122.18C107.643 122.4 107.533 122.66 107.533 122.96C107.533 123.2 107.598 123.4 107.728 123.56C107.868 123.71 108.048 123.82 108.268 123.89C108.488 123.96 108.728 123.995 108.988 123.995ZM117.952 125.18C117.002 125.18 116.237 124.845 115.657 124.175C115.077 123.495 114.787 122.55 114.787 121.34C114.787 120.55 114.942 119.87 115.252 119.3C115.572 118.72 115.982 118.275 116.482 117.965C116.982 117.645 117.512 117.485 118.072 117.485C118.502 117.485 118.887 117.565 119.227 117.725C119.567 117.885 119.882 118.11 120.172 118.4H120.217L120.142 117.095V114.365H121.627V125H120.412L120.292 124.1H120.247C119.957 124.39 119.612 124.645 119.212 124.865C118.812 125.075 118.392 125.18 117.952 125.18ZM118.297 123.95C118.627 123.95 118.942 123.87 119.242 123.71C119.552 123.54 119.852 123.29 120.142 122.96V119.48C119.852 119.21 119.562 119.02 119.272 118.91C118.982 118.79 118.692 118.73 118.402 118.73C118.022 118.73 117.672 118.835 117.352 119.045C117.042 119.255 116.792 119.555 116.602 119.945C116.412 120.335 116.317 120.795 116.317 121.325C116.317 122.165 116.492 122.815 116.842 123.275C117.192 123.725 117.677 123.95 118.297 123.95ZM82.8457 144.18C82.4857 144.18 82.1107 144.095 81.7207 143.925C81.3307 143.745 80.9707 143.5 80.6407 143.19H80.5957L80.4607 144H79.2907V133.365H80.7757V136.185L80.7157 137.535H80.7607C81.0807 137.215 81.4457 136.96 81.8557 136.77C82.2757 136.58 82.6907 136.485 83.1007 136.485C83.7507 136.485 84.3007 136.64 84.7507 136.95C85.2007 137.26 85.5407 137.695 85.7707 138.255C86.0107 138.805 86.1307 139.46 86.1307 140.22C86.1307 141.05 85.9757 141.765 85.6657 142.365C85.3557 142.955 84.9507 143.405 84.4507 143.715C83.9607 144.025 83.4257 144.18 82.8457 144.18ZM82.5607 142.95C82.9507 142.95 83.2957 142.845 83.5957 142.635C83.9057 142.425 84.1507 142.12 84.3307 141.72C84.5107 141.31 84.6007 140.815 84.6007 140.235C84.6007 139.725 84.5307 139.285 84.3907 138.915C84.2607 138.535 84.0607 138.245 83.7907 138.045C83.5207 137.835 83.1607 137.73 82.7107 137.73C82.4107 137.73 82.0957 137.81 81.7657 137.97C81.4357 138.12 81.1057 138.37 80.7757 138.72V142.185C81.0857 142.455 81.4007 142.65 81.7207 142.77C82.0407 142.89 82.3207 142.95 82.5607 142.95ZM91.4648 144.18C90.8248 144.18 90.2248 144.03 89.6648 143.73C89.1148 143.43 88.6648 142.995 88.3148 142.425C87.9748 141.845 87.8048 141.15 87.8048 140.34C87.8048 139.53 87.9748 138.84 88.3148 138.27C88.6648 137.69 89.1148 137.25 89.6648 136.95C90.2248 136.64 90.8248 136.485 91.4648 136.485C92.1048 136.485 92.6998 136.64 93.2498 136.95C93.8098 137.25 94.2598 137.69 94.5998 138.27C94.9498 138.84 95.1248 139.53 95.1248 140.34C95.1248 141.15 94.9498 141.845 94.5998 142.425C94.2598 142.995 93.8098 143.43 93.2498 143.73C92.6998 144.03 92.1048 144.18 91.4648 144.18ZM91.4648 142.965C91.8948 142.965 92.2698 142.855 92.5898 142.635C92.9098 142.415 93.1548 142.11 93.3248 141.72C93.5048 141.33 93.5948 140.87 93.5948 140.34C93.5948 139.82 93.5048 139.365 93.3248 138.975C93.1548 138.575 92.9098 138.265 92.5898 138.045C92.2698 137.825 91.8948 137.715 91.4648 137.715C91.0348 137.715 90.6598 137.825 90.3398 138.045C90.0198 138.265 89.7698 138.575 89.5898 138.975C89.4198 139.365 89.3348 139.82 89.3348 140.34C89.3348 140.87 89.4198 141.33 89.5898 141.72C89.7698 142.11 90.0198 142.415 90.3398 142.635C90.6598 142.855 91.0348 142.965 91.4648 142.965ZM99.964 144.18C99.014 144.18 98.249 143.845 97.669 143.175C97.089 142.495 96.799 141.55 96.799 140.34C96.799 139.55 96.954 138.87 97.264 138.3C97.584 137.72 97.994 137.275 98.494 136.965C98.994 136.645 99.524 136.485 100.084 136.485C100.514 136.485 100.899 136.565 101.239 136.725C101.579 136.885 101.894 137.11 102.184 137.4H102.229L102.154 136.095V133.365H103.639V144H102.424L102.304 143.1H102.259C101.969 143.39 101.624 143.645 101.224 143.865C100.824 144.075 100.404 144.18 99.964 144.18ZM100.309 142.95C100.639 142.95 100.954 142.87 101.254 142.71C101.564 142.54 101.864 142.29 102.154 141.96V138.48C101.864 138.21 101.574 138.02 101.284 137.91C100.994 137.79 100.704 137.73 100.414 137.73C100.034 137.73 99.684 137.835 99.364 138.045C99.054 138.255 98.804 138.555 98.614 138.945C98.424 139.335 98.329 139.795 98.329 140.325C98.329 141.165 98.504 141.815 98.854 142.275C99.204 142.725 99.689 142.95 100.309 142.95ZM106.963 147.075C106.783 147.075 106.603 147.06 106.423 147.03C106.243 147 106.088 146.965 105.958 146.925L106.258 145.77C106.348 145.8 106.448 145.825 106.558 145.845C106.668 145.865 106.778 145.875 106.888 145.875C107.378 145.875 107.773 145.74 108.073 145.47C108.373 145.2 108.608 144.865 108.778 144.465L108.973 143.955L105.628 136.665H107.113L108.763 140.49C108.893 140.82 109.028 141.17 109.168 141.54C109.318 141.9 109.468 142.265 109.618 142.635H109.678C109.798 142.285 109.923 141.925 110.053 141.555C110.183 141.175 110.308 140.82 110.428 140.49L111.883 136.665H113.293L110.158 144.465C109.968 144.985 109.733 145.44 109.453 145.83C109.173 146.22 108.828 146.525 108.418 146.745C108.018 146.965 107.533 147.075 106.963 147.075ZM117.952 163.18C117.002 163.18 116.237 162.845 115.657 162.175C115.077 161.495 114.787 160.55 114.787 159.34C114.787 158.55 114.942 157.87 115.252 157.3C115.572 156.72 115.982 156.275 116.482 155.965C116.982 155.645 117.512 155.485 118.072 155.485C118.502 155.485 118.887 155.565 119.227 155.725C119.567 155.885 119.882 156.11 120.172 156.4H120.217L120.142 155.095V152.365H121.627V163H120.412L120.292 162.1H120.247C119.957 162.39 119.612 162.645 119.212 162.865C118.812 163.075 118.392 163.18 117.952 163.18ZM118.297 161.95C118.627 161.95 118.942 161.87 119.242 161.71C119.552 161.54 119.852 161.29 120.142 160.96V157.48C119.852 157.21 119.562 157.02 119.272 156.91C118.982 156.79 118.692 156.73 118.402 156.73C118.022 156.73 117.672 156.835 117.352 157.045C117.042 157.255 116.792 157.555 116.602 157.945C116.412 158.335 116.317 158.795 116.317 159.325C116.317 160.165 116.492 160.815 116.842 161.275C117.192 161.725 117.677 161.95 118.297 161.95ZM127.531 163V156.865H124.246V155.665H129.016V163H127.531ZM128.146 154.24C127.826 154.24 127.561 154.145 127.351 153.955C127.141 153.755 127.036 153.495 127.036 153.175C127.036 152.855 127.141 152.6 127.351 152.41C127.561 152.21 127.826 152.11 128.146 152.11C128.466 152.11 128.731 152.21 128.941 152.41C129.151 152.6 129.256 152.855 129.256 153.175C129.256 153.495 129.151 153.755 128.941 153.955C128.731 154.145 128.466 154.24 128.146 154.24ZM135.626 163L132.626 155.665H134.126L135.671 159.655C135.811 160.015 135.946 160.38 136.076 160.75C136.206 161.11 136.331 161.47 136.451 161.83H136.511C136.641 161.47 136.766 161.11 136.886 160.75C137.006 160.38 137.136 160.015 137.276 159.655L138.821 155.665H140.246L137.306 163H135.626ZM151.244 182V171.365H152.729V174.185L152.639 175.835H152.684C153.034 175.465 153.424 175.15 153.854 174.89C154.284 174.62 154.779 174.485 155.339 174.485C156.199 174.485 156.829 174.745 157.229 175.265C157.629 175.775 157.829 176.505 157.829 177.455V182H156.344V177.65C156.344 177.01 156.224 176.54 155.984 176.24C155.754 175.93 155.364 175.775 154.814 175.775C154.424 175.775 154.074 175.875 153.764 176.075C153.454 176.265 153.109 176.555 152.729 176.945V182H151.244ZM160.313 182V180.785H163.013V174.125H160.883V173.195C161.273 173.135 161.613 173.07 161.903 173C162.203 172.93 162.473 172.85 162.713 172.76C162.963 172.67 163.193 172.565 163.403 172.445H164.498V180.785H166.913V182H160.313ZM304.144 182V171.365H305.629V174.185L305.539 175.835H305.584C305.934 175.465 306.324 175.15 306.754 174.89C307.184 174.62 307.679 174.485 308.239 174.485C309.099 174.485 309.729 174.745 310.129 175.265C310.529 175.775 310.729 176.505 310.729 177.455V182H309.244V177.65C309.244 177.01 309.124 176.54 308.884 176.24C308.654 175.93 308.264 175.775 307.714 175.775C307.324 175.775 306.974 175.875 306.664 176.075C306.354 176.265 306.009 176.555 305.629 176.945V182H304.144ZM313.213 182V180.785H315.913V174.125H313.783V173.195C314.173 173.135 314.513 173.07 314.803 173C315.103 172.93 315.373 172.85 315.613 172.76C315.863 172.67 316.093 172.565 316.303 172.445H317.398V180.785H319.813V182H313.213ZM126.946 201.18C125.996 201.18 125.231 200.845 124.651 200.175C124.071 199.495 123.781 198.55 123.781 197.34C123.781 196.55 123.936 195.87 124.246 195.3C124.566 194.72 124.976 194.275 125.476 193.965C125.976 193.645 126.506 193.485 127.066 193.485C127.496 193.485 127.881 193.565 128.221 193.725C128.561 193.885 128.876 194.11 129.166 194.4H129.211L129.136 193.095V190.365H130.621V201H129.406L129.286 200.1H129.241C128.951 200.39 128.606 200.645 128.206 200.865C127.806 201.075 127.386 201.18 126.946 201.18ZM127.291 199.95C127.621 199.95 127.936 199.87 128.236 199.71C128.546 199.54 128.846 199.29 129.136 198.96V195.48C128.846 195.21 128.556 195.02 128.266 194.91C127.976 194.79 127.686 194.73 127.396 194.73C127.016 194.73 126.666 194.835 126.346 195.045C126.036 195.255 125.786 195.555 125.596 195.945C125.406 196.335 125.311 196.795 125.311 197.325C125.311 198.165 125.486 198.815 125.836 199.275C126.186 199.725 126.671 199.95 127.291 199.95ZM136.526 201V194.865H133.241V193.665H138.011V201H136.526ZM137.141 192.24C136.821 192.24 136.556 192.145 136.346 191.955C136.136 191.755 136.031 191.495 136.031 191.175C136.031 190.855 136.136 190.6 136.346 190.41C136.556 190.21 136.821 190.11 137.141 190.11C137.461 190.11 137.726 190.21 137.936 190.41C138.146 190.6 138.251 190.855 138.251 191.175C138.251 191.495 138.146 191.755 137.936 191.955C137.726 192.145 137.461 192.24 137.141 192.24ZM144.62 201L141.62 193.665H143.12L144.665 197.655C144.805 198.015 144.94 198.38 145.07 198.75C145.2 199.11 145.325 199.47 145.445 199.83H145.505C145.635 199.47 145.76 199.11 145.88 198.75C146 198.38 146.13 198.015 146.27 197.655L147.815 193.665H149.24L146.3 201H144.62ZM100.834 220.18C100.474 220.18 100.099 220.095 99.709 219.925C99.319 219.745 98.959 219.5 98.629 219.19H98.584L98.449 220H97.279V209.365H98.764V212.185L98.704 213.535H98.749C99.069 213.215 99.434 212.96 99.844 212.77C100.264 212.58 100.679 212.485 101.089 212.485C101.739 212.485 102.289 212.64 102.739 212.95C103.189 213.26 103.529 213.695 103.759 214.255C103.999 214.805 104.119 215.46 104.119 216.22C104.119 217.05 103.964 217.765 103.654 218.365C103.344 218.955 102.939 219.405 102.439 219.715C101.949 220.025 101.414 220.18 100.834 220.18ZM100.549 218.95C100.939 218.95 101.284 218.845 101.584 218.635C101.894 218.425 102.139 218.12 102.319 217.72C102.499 217.31 102.589 216.815 102.589 216.235C102.589 215.725 102.519 215.285 102.379 214.915C102.249 214.535 102.049 214.245 101.779 214.045C101.509 213.835 101.149 213.73 100.699 213.73C100.399 213.73 100.084 213.81 99.754 213.97C99.424 214.12 99.094 214.37 98.764 214.72V218.185C99.074 218.455 99.389 218.65 99.709 218.77C100.029 218.89 100.309 218.95 100.549 218.95ZM109.453 220.18C108.813 220.18 108.213 220.03 107.653 219.73C107.103 219.43 106.653 218.995 106.303 218.425C105.963 217.845 105.793 217.15 105.793 216.34C105.793 215.53 105.963 214.84 106.303 214.27C106.653 213.69 107.103 213.25 107.653 212.95C108.213 212.64 108.813 212.485 109.453 212.485C110.093 212.485 110.688 212.64 111.238 212.95C111.798 213.25 112.248 213.69 112.588 214.27C112.938 214.84 113.113 215.53 113.113 216.34C113.113 217.15 112.938 217.845 112.588 218.425C112.248 218.995 111.798 219.43 111.238 219.73C110.688 220.03 110.093 220.18 109.453 220.18ZM109.453 218.965C109.883 218.965 110.258 218.855 110.578 218.635C110.898 218.415 111.143 218.11 111.313 217.72C111.493 217.33 111.583 216.87 111.583 216.34C111.583 215.82 111.493 215.365 111.313 214.975C111.143 214.575 110.898 214.265 110.578 214.045C110.258 213.825 109.883 213.715 109.453 213.715C109.023 213.715 108.648 213.825 108.328 214.045C108.008 214.265 107.758 214.575 107.578 214.975C107.408 215.365 107.323 215.82 107.323 216.34C107.323 216.87 107.408 217.33 107.578 217.72C107.758 218.11 108.008 218.415 108.328 218.635C108.648 218.855 109.023 218.965 109.453 218.965ZM117.952 220.18C117.002 220.18 116.237 219.845 115.657 219.175C115.077 218.495 114.787 217.55 114.787 216.34C114.787 215.55 114.942 214.87 115.252 214.3C115.572 213.72 115.982 213.275 116.482 212.965C116.982 212.645 117.512 212.485 118.072 212.485C118.502 212.485 118.887 212.565 119.227 212.725C119.567 212.885 119.882 213.11 120.172 213.4H120.217L120.142 212.095V209.365H121.627V220H120.412L120.292 219.1H120.247C119.957 219.39 119.612 219.645 119.212 219.865C118.812 220.075 118.392 220.18 117.952 220.18ZM118.297 218.95C118.627 218.95 118.942 218.87 119.242 218.71C119.552 218.54 119.852 218.29 120.142 217.96V214.48C119.852 214.21 119.562 214.02 119.272 213.91C118.982 213.79 118.692 213.73 118.402 213.73C118.022 213.73 117.672 213.835 117.352 214.045C117.042 214.255 116.792 214.555 116.602 214.945C116.412 215.335 116.317 215.795 116.317 216.325C116.317 217.165 116.492 217.815 116.842 218.275C117.192 218.725 117.677 218.95 118.297 218.95ZM124.951 223.075C124.771 223.075 124.591 223.06 124.411 223.03C124.231 223 124.076 222.965 123.946 222.925L124.246 221.77C124.336 221.8 124.436 221.825 124.546 221.845C124.656 221.865 124.766 221.875 124.876 221.875C125.366 221.875 125.761 221.74 126.061 221.47C126.361 221.2 126.596 220.865 126.766 220.465L126.961 219.955L123.616 212.665H125.101L126.751 216.49C126.881 216.82 127.016 217.17 127.156 217.54C127.306 217.9 127.456 218.265 127.606 218.635H127.666C127.786 218.285 127.911 217.925 128.041 217.555C128.171 217.175 128.296 216.82 128.416 216.49L129.871 212.665H131.281L128.146 220.465C127.956 220.985 127.721 221.44 127.441 221.83C127.161 222.22 126.816 222.525 126.406 222.745C126.006 222.965 125.521 223.075 124.951 223.075ZM52.3083 239V228.365H53.7933V231.185L53.7033 232.835H53.7483C54.0983 232.465 54.4883 232.15 54.9183 231.89C55.3483 231.62 55.8433 231.485 56.4033 231.485C57.2633 231.485 57.8933 231.745 58.2933 232.265C58.6933 232.775 58.8933 233.505 58.8933 234.455V239H57.4083V234.65C57.4083 234.01 57.2883 233.54 57.0483 233.24C56.8183 232.93 56.4283 232.775 55.8783 232.775C55.4883 232.775 55.1383 232.875 54.8283 233.075C54.5183 233.265 54.1733 233.555 53.7933 233.945V239H52.3083ZM65.8774 239.18C65.1374 239.18 64.5524 239.05 64.1224 238.79C63.7024 238.53 63.4024 238.17 63.2224 237.71C63.0424 237.25 62.9524 236.715 62.9524 236.105V232.865H60.9424V231.755L63.0124 231.665L63.2074 229.355H64.4374V231.665H67.9024V232.865H64.4374V236.105C64.4374 236.515 64.4924 236.865 64.6024 237.155C64.7124 237.435 64.8974 237.645 65.1574 237.785C65.4174 237.915 65.7674 237.98 66.2074 237.98C66.5374 237.98 66.8374 237.955 67.1074 237.905C67.3774 237.845 67.6374 237.77 67.8874 237.68L68.1874 238.76C67.8574 238.87 67.5024 238.965 67.1224 239.045C66.7524 239.135 66.3374 239.18 65.8774 239.18ZM69.7566 239V231.665H70.9266L71.0466 232.625H71.0766C71.2566 232.295 71.4716 232.025 71.7216 231.815C71.9716 231.595 72.3066 231.485 72.7266 231.485C73.0766 231.485 73.3666 231.59 73.5966 231.8C73.8266 232.01 73.9866 232.325 74.0766 232.745C74.2766 232.365 74.5016 232.06 74.7516 231.83C75.0116 231.6 75.3516 231.485 75.7716 231.485C76.2916 231.485 76.6916 231.685 76.9716 232.085C77.2616 232.485 77.4066 233.05 77.4066 233.78V239H75.9516V233.885C75.9516 233.135 75.7266 232.76 75.2766 232.76C75.0566 232.76 74.8716 232.845 74.7216 233.015C74.5716 233.185 74.4066 233.44 74.2266 233.78V239H72.9366V233.885C72.9366 233.515 72.8816 233.235 72.7716 233.045C72.6716 232.855 72.5066 232.76 72.2766 232.76C72.0566 232.76 71.8616 232.845 71.6916 233.015C71.5316 233.185 71.3716 233.44 71.2116 233.78V239H69.7566ZM84.0157 239.18C83.2057 239.18 82.5857 238.945 82.1557 238.475C81.7257 237.995 81.5107 237.315 81.5107 236.435V229.565H79.0657V228.365H82.9957V236.525C82.9957 237.035 83.1257 237.405 83.3857 237.635C83.6457 237.855 83.9707 237.965 84.3607 237.965C84.5607 237.965 84.7657 237.94 84.9757 237.89C85.1957 237.84 85.4357 237.76 85.6957 237.65L86.0557 238.76C85.7057 238.88 85.3807 238.98 85.0807 239.06C84.7907 239.14 84.4357 239.18 84.0157 239.18Z" fill="#1F149A"/>
<path d="M124.261 49V38.365H125.746V41.185L125.656 42.835H125.701C126.051 42.465 126.441 42.15 126.871 41.89C127.301 41.62 127.796 41.485 128.356 41.485C129.216 41.485 129.846 41.745 130.246 42.265C130.646 42.775 130.846 43.505 130.846 44.455V49H129.361V44.65C129.361 44.01 129.241 43.54 129.001 43.24C128.771 42.93 128.381 42.775 127.831 42.775C127.441 42.775 127.091 42.875 126.781 43.075C126.471 43.265 126.126 43.555 125.746 43.945V49H124.261ZM137.831 49.18C137.091 49.18 136.506 49.05 136.076 48.79C135.656 48.53 135.356 48.17 135.176 47.71C134.996 47.25 134.906 46.715 134.906 46.105V42.865H132.896V41.755L134.966 41.665L135.161 39.355H136.391V41.665H139.856V42.865H136.391V46.105C136.391 46.515 136.446 46.865 136.556 47.155C136.666 47.435 136.851 47.645 137.111 47.785C137.371 47.915 137.721 47.98 138.161 47.98C138.491 47.98 138.791 47.955 139.061 47.905C139.331 47.845 139.591 47.77 139.841 47.68L140.141 48.76C139.811 48.87 139.456 48.965 139.076 49.045C138.706 49.135 138.291 49.18 137.831 49.18ZM141.71 49V41.665H142.88L143 42.625H143.03C143.21 42.295 143.425 42.025 143.675 41.815C143.925 41.595 144.26 41.485 144.68 41.485C145.03 41.485 145.32 41.59 145.55 41.8C145.78 42.01 145.94 42.325 146.03 42.745C146.23 42.365 146.455 42.06 146.705 41.83C146.965 41.6 147.305 41.485 147.725 41.485C148.245 41.485 148.645 41.685 148.925 42.085C149.215 42.485 149.36 43.05 149.36 43.78V49H147.905V43.885C147.905 43.135 147.68 42.76 147.23 42.76C147.01 42.76 146.825 42.845 146.675 43.015C146.525 43.185 146.36 43.44 146.18 43.78V49H144.89V43.885C144.89 43.515 144.835 43.235 144.725 43.045C144.625 42.855 144.46 42.76 144.23 42.76C144.01 42.76 143.815 42.845 143.645 43.015C143.485 43.185 143.325 43.44 143.165 43.78V49H141.71ZM155.969 49.18C155.159 49.18 154.539 48.945 154.109 48.475C153.679 47.995 153.464 47.315 153.464 46.435V39.565H151.019V38.365H154.949V46.525C154.949 47.035 155.079 47.405 155.339 47.635C155.599 47.855 155.924 47.965 156.314 47.965C156.514 47.965 156.719 47.94 156.929 47.89C157.149 47.84 157.389 47.76 157.649 47.65L158.009 48.76C157.659 48.88 157.334 48.98 157.034 49.06C156.744 49.14 156.389 49.18 155.969 49.18ZM93.0098 68.18C92.1998 68.18 91.5798 67.945 91.1498 67.475C90.7198 66.995 90.5048 66.315 90.5048 65.435V58.565H88.0598V57.365H91.9898V65.525C91.9898 66.035 92.1198 66.405 92.3798 66.635C92.6398 66.855 92.9648 66.965 93.3548 66.965C93.5548 66.965 93.7598 66.94 93.9698 66.89C94.1898 66.84 94.4298 66.76 94.6898 66.65L95.0498 67.76C94.6998 67.88 94.3748 67.98 94.0748 68.06C93.7848 68.14 93.4298 68.18 93.0098 68.18ZM99.574 68.18C99.104 68.18 98.679 68.095 98.299 67.925C97.929 67.745 97.634 67.5 97.414 67.19C97.204 66.87 97.099 66.495 97.099 66.065C97.099 65.245 97.499 64.62 98.299 64.19C99.109 63.76 100.434 63.475 102.274 63.335C102.264 63.035 102.194 62.76 102.064 62.51C101.944 62.26 101.749 62.065 101.479 61.925C101.219 61.775 100.874 61.7 100.444 61.7C100.144 61.7 99.849 61.74 99.559 61.82C99.269 61.89 98.989 61.99 98.719 62.12C98.449 62.25 98.194 62.385 97.954 62.525L97.399 61.52C97.669 61.36 97.979 61.2 98.329 61.04C98.679 60.87 99.054 60.735 99.454 60.635C99.864 60.535 100.279 60.485 100.699 60.485C101.379 60.485 101.944 60.61 102.394 60.86C102.844 61.11 103.184 61.465 103.414 61.925C103.644 62.385 103.759 62.94 103.759 63.59V68H102.544L102.424 67.055H102.379C101.989 67.355 101.549 67.62 101.059 67.85C100.569 68.07 100.074 68.18 99.574 68.18ZM99.994 66.995C100.384 66.995 100.769 66.91 101.149 66.74C101.529 66.57 101.904 66.33 102.274 66.02V64.28C101.314 64.35 100.559 64.46 100.009 64.61C99.469 64.76 99.089 64.95 98.869 65.18C98.649 65.4 98.539 65.66 98.539 65.96C98.539 66.2 98.604 66.4 98.734 66.56C98.874 66.71 99.054 66.82 99.274 66.89C99.494 66.96 99.734 66.995 99.994 66.995ZM106.273 68V60.665H107.488L107.608 61.85H107.668C108.038 61.47 108.438 61.15 108.868 60.89C109.298 60.62 109.798 60.485 110.368 60.485C111.218 60.485 111.843 60.745 112.243 61.265C112.653 61.775 112.858 62.505 112.858 63.455V68H111.373V63.65C111.373 63.01 111.253 62.54 111.013 62.24C110.783 61.93 110.393 61.775 109.843 61.775C109.453 61.775 109.103 61.875 108.793 62.075C108.483 62.265 108.138 62.555 107.758 62.945V68H106.273ZM118.312 71.315C117.622 71.315 117.022 71.235 116.512 71.075C116.012 70.925 115.627 70.7 115.357 70.4C115.087 70.11 114.952 69.75 114.952 69.32C114.952 69.02 115.052 68.73 115.252 68.45C115.452 68.18 115.747 67.94 116.137 67.73V67.67C115.947 67.55 115.772 67.395 115.612 67.205C115.462 67.015 115.387 66.765 115.387 66.455C115.387 66.215 115.462 65.975 115.612 65.735C115.772 65.485 115.987 65.265 116.257 65.075V65.015C116.007 64.825 115.792 64.57 115.612 64.25C115.432 63.93 115.342 63.555 115.342 63.125C115.342 62.575 115.477 62.105 115.747 61.715C116.027 61.325 116.387 61.025 116.827 60.815C117.277 60.595 117.767 60.485 118.297 60.485C118.717 60.485 119.087 60.545 119.407 60.665H122.422V61.835H120.637C120.787 61.995 120.912 62.195 121.012 62.435C121.122 62.665 121.177 62.91 121.177 63.17C121.177 63.71 121.047 64.165 120.787 64.535C120.537 64.905 120.192 65.19 119.752 65.39C119.322 65.58 118.837 65.675 118.297 65.675C118.117 65.675 117.922 65.655 117.712 65.615C117.512 65.575 117.312 65.515 117.112 65.435C116.952 65.545 116.827 65.66 116.737 65.78C116.647 65.9 116.602 66.04 116.602 66.2C116.602 66.46 116.727 66.655 116.977 66.785C117.227 66.905 117.587 66.965 118.057 66.965H119.617C120.567 66.965 121.277 67.1 121.747 67.37C122.227 67.64 122.467 68.09 122.467 68.72C122.467 69.19 122.297 69.62 121.957 70.01C121.617 70.41 121.137 70.725 120.517 70.955C119.897 71.195 119.162 71.315 118.312 71.315ZM118.297 64.715C118.577 64.715 118.832 64.655 119.062 64.535C119.292 64.405 119.477 64.22 119.617 63.98C119.757 63.74 119.827 63.455 119.827 63.125C119.827 62.805 119.757 62.53 119.617 62.3C119.477 62.06 119.292 61.875 119.062 61.745C118.832 61.605 118.577 61.535 118.297 61.535C118.017 61.535 117.757 61.605 117.517 61.745C117.287 61.875 117.102 62.06 116.962 62.3C116.822 62.53 116.752 62.805 116.752 63.125C116.752 63.455 116.822 63.74 116.962 63.98C117.102 64.22 117.287 64.405 117.517 64.535C117.757 64.655 118.017 64.715 118.297 64.715ZM118.462 70.28C118.992 70.28 119.447 70.215 119.827 70.085C120.207 69.965 120.497 69.805 120.697 69.605C120.907 69.415 121.012 69.205 121.012 68.975C121.012 68.645 120.882 68.425 120.622 68.315C120.362 68.215 119.972 68.165 119.452 68.165H118.147C117.917 68.165 117.712 68.155 117.532 68.135C117.352 68.115 117.187 68.085 117.037 68.045C116.727 68.215 116.507 68.39 116.377 68.57C116.257 68.76 116.197 68.95 116.197 69.14C116.197 69.49 116.392 69.765 116.782 69.965C117.172 70.175 117.732 70.28 118.462 70.28Z" fill="#2688E3"/>
<path d="M134.171 62.9L133.751 59.48L133.706 57.71H135.596L135.551 59.48L135.131 62.9H134.171ZM137.741 62.9L137.321 59.48L137.276 57.71H139.166L139.121 59.48L138.701 62.9H137.741ZM145.88 68.18C145.14 68.18 144.465 68.03 143.855 67.73C143.255 67.43 142.78 66.99 142.43 66.41C142.08 65.83 141.905 65.135 141.905 64.325C141.905 63.525 142.08 62.84 142.43 62.27C142.79 61.7 143.255 61.26 143.825 60.95C144.395 60.64 145.005 60.485 145.655 60.485C146.375 60.485 146.985 60.635 147.485 60.935C147.985 61.225 148.365 61.63 148.625 62.15C148.895 62.66 149.03 63.26 149.03 63.95C149.03 64.1 149.025 64.25 149.015 64.4C149.005 64.54 148.99 64.66 148.97 64.76H142.94V63.665H148.04L147.71 64.025C147.71 63.235 147.53 62.645 147.17 62.255C146.81 61.855 146.32 61.655 145.7 61.655C145.27 61.655 144.875 61.76 144.515 61.97C144.165 62.17 143.885 62.47 143.675 62.87C143.465 63.26 143.36 63.745 143.36 64.325C143.36 64.925 143.475 65.425 143.705 65.825C143.945 66.215 144.265 66.51 144.665 66.71C145.075 66.91 145.545 67.01 146.075 67.01C146.485 67.01 146.86 66.955 147.2 66.845C147.54 66.725 147.875 66.565 148.205 66.365L148.73 67.31C148.36 67.56 147.935 67.77 147.455 67.94C146.975 68.1 146.45 68.18 145.88 68.18ZM151.244 68V60.665H152.459L152.579 61.85H152.639C153.009 61.47 153.409 61.15 153.839 60.89C154.269 60.62 154.769 60.485 155.339 60.485C156.189 60.485 156.814 60.745 157.214 61.265C157.624 61.775 157.829 62.505 157.829 63.455V68H156.344V63.65C156.344 63.01 156.224 62.54 155.984 62.24C155.754 61.93 155.364 61.775 154.814 61.775C154.424 61.775 154.074 61.875 153.764 62.075C153.454 62.265 153.109 62.555 152.729 62.945V68H151.244ZM161.153 62.9L160.733 59.48L160.688 57.71H162.578L162.533 59.48L162.113 62.9H161.153ZM164.723 62.9L164.303 59.48L164.258 57.71H166.148L166.103 59.48L165.683 62.9H164.723Z" fill="#2E7A13"/>
<path d="M13.35 22V20.74H15.75V13.435H13.35V12.175H19.65V13.435H17.25V20.74H19.65V22H13.35ZM22.3141 22V14.665H23.5291L23.6491 15.85H23.7091C24.0791 15.47 24.4791 15.15 24.9091 14.89C25.3391 14.62 25.8391 14.485 26.4091 14.485C27.2591 14.485 27.8841 14.745 28.2841 15.265C28.6941 15.775 28.8991 16.505 28.8991 17.455V22H27.4141V17.65C27.4141 17.01 27.2941 16.54 27.0541 16.24C26.8241 15.93 26.4341 15.775 25.8841 15.775C25.4941 15.775 25.1441 15.875 24.8341 16.075C24.5241 16.265 24.1791 16.555 23.7991 16.945V22H22.3141ZM33.9933 22.18C33.0433 22.18 32.2783 21.845 31.6983 21.175C31.1183 20.495 30.8283 19.55 30.8283 18.34C30.8283 17.55 30.9833 16.87 31.2933 16.3C31.6133 15.72 32.0233 15.275 32.5233 14.965C33.0233 14.645 33.5533 14.485 34.1133 14.485C34.5433 14.485 34.9283 14.565 35.2683 14.725C35.6083 14.885 35.9233 15.11 36.2133 15.4H36.2583L36.1833 14.095V11.365H37.6683V22H36.4533L36.3333 21.1H36.2883C35.9983 21.39 35.6533 21.645 35.2533 21.865C34.8533 22.075 34.4333 22.18 33.9933 22.18ZM34.3383 20.95C34.6683 20.95 34.9833 20.87 35.2833 20.71C35.5933 20.54 35.8933 20.29 36.1833 19.96V16.48C35.8933 16.21 35.6033 16.02 35.3133 15.91C35.0233 15.79 34.7333 15.73 34.4433 15.73C34.0633 15.73 33.7133 15.835 33.3933 16.045C33.0833 16.255 32.8333 16.555 32.6433 16.945C32.4533 17.335 32.3583 17.795 32.3583 18.325C32.3583 19.165 32.5333 19.815 32.8833 20.275C33.2333 20.725 33.7183 20.95 34.3383 20.95ZM43.9324 22.18C43.1924 22.18 42.5174 22.03 41.9074 21.73C41.3074 21.43 40.8324 20.99 40.4824 20.41C40.1324 19.83 39.9574 19.135 39.9574 18.325C39.9574 17.525 40.1324 16.84 40.4824 16.27C40.8424 15.7 41.3074 15.26 41.8774 14.95C42.4474 14.64 43.0574 14.485 43.7074 14.485C44.4274 14.485 45.0374 14.635 45.5374 14.935C46.0374 15.225 46.4174 15.63 46.6774 16.15C46.9474 16.66 47.0824 17.26 47.0824 17.95C47.0824 18.1 47.0774 18.25 47.0674 18.4C47.0574 18.54 47.0424 18.66 47.0224 18.76H40.9924V17.665H46.0924L45.7624 18.025C45.7624 17.235 45.5824 16.645 45.2224 16.255C44.8624 15.855 44.3724 15.655 43.7524 15.655C43.3224 15.655 42.9274 15.76 42.5674 15.97C42.2174 16.17 41.9374 16.47 41.7274 16.87C41.5174 17.26 41.4124 17.745 41.4124 18.325C41.4124 18.925 41.5274 19.425 41.7574 19.825C41.9974 20.215 42.3174 20.51 42.7174 20.71C43.1274 20.91 43.5974 21.01 44.1274 21.01C44.5374 21.01 44.9124 20.955 45.2524 20.845C45.5924 20.725 45.9274 20.565 46.2574 20.365L46.7824 21.31C46.4124 21.56 45.9874 21.77 45.5074 21.94C45.0274 22.1 44.5024 22.18 43.9324 22.18ZM48.8316 22L51.5616 18.19L49.0266 14.665H50.6466L51.7116 16.165C51.8416 16.365 51.9766 16.575 52.1166 16.795C52.2666 17.005 52.4066 17.21 52.5366 17.41H52.5966C52.7266 17.21 52.8566 17 52.9866 16.78C53.1266 16.56 53.2566 16.35 53.3766 16.15L54.3516 14.665H55.9266L53.3766 18.34L56.1066 22H54.4866L53.3166 20.44C53.1766 20.23 53.0266 20.01 52.8666 19.78C52.7066 19.55 52.5466 19.33 52.3866 19.12H52.3266C52.1866 19.34 52.0466 19.56 51.9066 19.78C51.7666 19.99 51.6266 20.21 51.4866 20.44L50.4066 22H48.8316ZM61.4707 22.18C61.0907 22.18 60.7707 22.05 60.5107 21.79C60.2507 21.53 60.1207 21.195 60.1207 20.785C60.1207 20.375 60.2507 20.04 60.5107 19.78C60.7707 19.52 61.0907 19.39 61.4707 19.39C61.8607 19.39 62.1807 19.52 62.4307 19.78C62.6907 20.04 62.8207 20.375 62.8207 20.785C62.8207 21.195 62.6907 21.53 62.4307 21.79C62.1807 22.05 61.8607 22.18 61.4707 22.18ZM67.2848 22V11.365H68.7698V14.185L68.6798 15.835H68.7248C69.0748 15.465 69.4648 15.15 69.8948 14.89C70.3248 14.62 70.8198 14.485 71.3798 14.485C72.2398 14.485 72.8698 14.745 73.2698 15.265C73.6698 15.775 73.8698 16.505 73.8698 17.455V22H72.3848V17.65C72.3848 17.01 72.2648 16.54 72.0248 16.24C71.7948 15.93 71.4048 15.775 70.8548 15.775C70.4648 15.775 70.1148 15.875 69.8048 16.075C69.4948 16.265 69.1498 16.555 68.7698 16.945V22H67.2848ZM80.854 22.18C80.114 22.18 79.529 22.05 79.099 21.79C78.679 21.53 78.379 21.17 78.199 20.71C78.019 20.25 77.929 19.715 77.929 19.105V15.865H75.919V14.755L77.989 14.665L78.184 12.355H79.414V14.665H82.879V15.865H79.414V19.105C79.414 19.515 79.469 19.865 79.579 20.155C79.689 20.435 79.874 20.645 80.134 20.785C80.394 20.915 80.744 20.98 81.184 20.98C81.514 20.98 81.814 20.955 82.084 20.905C82.354 20.845 82.614 20.77 82.864 20.68L83.164 21.76C82.834 21.87 82.479 21.965 82.099 22.045C81.729 22.135 81.314 22.18 80.854 22.18ZM84.7331 22V14.665H85.9031L86.0231 15.625H86.0531C86.2331 15.295 86.4481 15.025 86.6981 14.815C86.9481 14.595 87.2831 14.485 87.7031 14.485C88.0531 14.485 88.3431 14.59 88.5731 14.8C88.8031 15.01 88.9631 15.325 89.0531 15.745C89.2531 15.365 89.4781 15.06 89.7281 14.83C89.9881 14.6 90.3281 14.485 90.7481 14.485C91.2681 14.485 91.6681 14.685 91.9481 15.085C92.2381 15.485 92.3831 16.05 92.3831 16.78V22H90.9281V16.885C90.9281 16.135 90.7031 15.76 90.2531 15.76C90.0331 15.76 89.8481 15.845 89.6981 16.015C89.5481 16.185 89.3831 16.44 89.2031 16.78V22H87.9131V16.885C87.9131 16.515 87.8581 16.235 87.7481 16.045C87.6481 15.855 87.4831 15.76 87.2531 15.76C87.0331 15.76 86.8381 15.845 86.6681 16.015C86.5081 16.185 86.3481 16.44 86.1881 16.78V22H84.7331ZM98.9923 22.18C98.1823 22.18 97.5623 21.945 97.1323 21.475C96.7023 20.995 96.4873 20.315 96.4873 19.435V12.565H94.0423V11.365H97.9723V19.525C97.9723 20.035 98.1023 20.405 98.3623 20.635C98.6223 20.855 98.9473 20.965 99.3373 20.965C99.5373 20.965 99.7423 20.94 99.9523 20.89C100.172 20.84 100.412 20.76 100.672 20.65L101.032 21.76C100.682 21.88 100.357 21.98 100.057 22.06C99.7673 22.14 99.4123 22.18 98.9923 22.18Z" fill="#2B2B2B"/>
</svg>
